<svg xmlns="http://www.w3.org/2000/svg" viewBox="0 0 100 125" x="0px" y="0px"><path d="m70.42,94.89l-.09-.02c-.32-.09-.64-.21-.95-.36l-.07-.03c-2.58-1.19-4.42-3.94-6.38-7.69-.82-1.58-2.21-4.46-3.81-7.8-2.82-5.89-6.34-13.21-8.54-17.05l-.38-.66c-.92-1.53-1.24-1.75-1.27-1.77-1.78-.99-26-9.89-28.18-9.89-.29,0-.83.14-1.71.8-1.59,1.17-3.81,3.61-6.25,6.88l-.15.2c-1.32,1.76-3.31,4.42-3.16,9.82l.04,1.36-.91-1.01c-.19-.21-.37-.43-.54-.65-2.39-3.12-3.48-7.5-3.48-10.24,0-5.23,2.62-12.85,7.02-20.38,4.26-7.32,9.41-13.58,10.88-15.32l.5-.59h.39c.16,0,.31,0,.48,0l.64-.04-.12.63c-.01.1-.02.17-.03.24h0s-.03.25-.03.25c0,.08-.02.15-.02.23-.01.15,0,.26,0,.38,0,.64.19,1.14.58,1.52.87.84,2.42.82,2.43.81,3.07,0,7.28-4.01,7.28-6.92,0-.13,0-.26-.02-.38,0-.13-.01-.19-.02-.25-.05-.56-.18-1.01-.38-1.35-.05-.08-.07-.12-.09-.15-.1-.17-.25-.33-.43-.46l-.16-.11c-.1-.07-.15-.1-.2-.12-.13-.06-.19-.09-.25-.11-.11-.04-.2-.08-.29-.1-.12-.04-.19-.06-.25-.06-.36-.07-.7-.11-1.08-.13-.1-.01-.17,0-.24,0-.13-.01-.21-.01-.28,0h-.32l-.13-.3c-.06-.13-.14-.26-.24-.4-.21-.32-.47-.59-.64-.77l-.3-.3.35-.49c.07-.1.13-.19.2-.28,1.02-1.42,2.09-2.52,3.26-3.34.9-.63,1.84-1.08,2.85-1.38.32-.11.69-.2,1.15-.3.95-.2,2.01-.29,3.33-.29,3.05,0,3.33,4.06,3.44,5.6l.04.64c.03.58.04,1.15.05,1.69.02,1.03.05,2.45.24,2.7.78.78,10.44,3.62,12.94,3.62,1.03,0,4.33-1.9,7.25-3.58.79-.46,1.58-.91,2.33-1.33.11-.06.23-.13.34-.19l.16-.09c2.68-1.49,4.08-2.07,4.81-1.98.25.05.44.11.63.17.05.01.11.03.19.05.06.01.12.03.18.05.1.03.21.06.31.11.01,0,.07.02.13.05.07.02.18.05.29.11.12.04.31.12.49.2.19.08.37.17.56.26.16.08.35.16.53.27.15.07.34.17.53.29.19.09.41.22.64.37.27.16.56.35.84.55.23.15.46.3.69.48.19.13.39.28.58.43.23.16.48.36.72.56.24.19.47.38.71.58l.23.2c.16.14.32.27.47.42.56.49,1.15,1.04,1.87,1.75l1.65,1.69c1.58,1.67,3.23,3.62,4.92,5.79l.57.75-.23,2.12c-.02.14-.03.24-.04.35l-.1.89c-.16,1.5-.37,3.41-.59,5.49-.04.35-.06.62-.1.89l-.26,2.51c-.03.26-.06.51-.08.77l-.09.91c-.07.61-.13,1.2-.18,1.78-.05.48-.1.94-.14,1.4l-.02.17-.08.78c-.04.35-.07.7-.1,1.04l-.09.95c-.04.46-.08.89-.12,1.31-.07.73-.12,1.4-.16,1.98l-.03.36c-.02.16-.02.3-.03.43-.4,5.84-2.58,24.17-6.17,32.4-3.79,8.68-10.57,9.65-10.63,9.66h-.09Zm-.78-1.36h0l.12.05c.24.12.48.22.74.3.72-.14,6.41-1.46,9.73-9.05,3.53-8.12,5.69-26.28,6.08-31.97.02-.24.03-.39.04-.55l.03-.34c.04-.58.1-1.25.16-1.99.04-.42.08-.85.12-1.31l.09-.94c.03-.35.07-.7.1-1.06l.08-.77s0-.1.02-.18c.04-.45.09-.93.14-1.4.05-.58.11-1.18.18-1.79l.09-.89c.02-.25.05-.52.08-.78l.26-2.54c.04-.27.06-.53.09-.79.22-2.16.43-4.08.59-5.58l.09-.88c0-.12.02-.25.04-.39l.19-1.71-.32-.42c-1.66-2.14-3.3-4.07-4.85-5.72l-1.62-1.66c-.7-.69-1.29-1.24-1.83-1.72-.16-.14-.31-.27-.46-.4l-.23-.2c-.23-.19-.46-.38-.69-.57-.23-.19-.46-.37-.69-.53-.2-.16-.39-.29-.58-.43-.23-.18-.44-.32-.66-.46-.28-.19-.55-.37-.82-.53-.21-.14-.41-.25-.6-.35-.19-.12-.34-.2-.49-.27-.2-.11-.35-.19-.51-.26-.18-.09-.33-.17-.49-.23-.19-.08-.35-.16-.51-.21-.12-.06-.19-.08-.25-.09l-.1-.04c-.15-.06-.21-.08-.26-.09l-.12-.04c-.14-.04-.2-.06-.26-.07-.2-.06-.35-.11-.52-.15-.28-.03-1.27.27-4.16,1.87l-.17.09c-.11.06-.22.12-.32.18-.76.43-1.54.88-2.33,1.33-4.01,2.31-6.53,3.72-7.75,3.72-2.38,0-12.49-2.75-13.65-3.92-.45-.45-.49-1.41-.53-3.38-.01-.53-.02-1.09-.05-1.66l-.04-.62c-.22-3.23-.98-4.66-2.44-4.66-1.25,0-2.24.09-3.13.27-.36.08-.71.16-1.05.27-.92.27-1.76.68-2.57,1.25-1.08.76-2.07,1.78-3.03,3.12-.02.02-.04.05-.05.07.15.17.32.37.46.59.07.09.13.19.19.28.02,0,.05,0,.08,0,.06,0,.14,0,.21.01.4.02.78.06,1.14.14.09,0,.24.04.4.1.09.02.22.07.33.12.08.03.18.07.28.12.11.03.26.12.42.24l.15.09c.3.22.53.48.73.79.05.09.07.12.09.16.26.44.43,1.01.5,1.72.01.08.02.19.02.29.02.09.02.26.02.45,0,3.41-4.71,7.92-8.27,7.92-.06,0-1.97.05-3.14-1.09-.59-.57-.89-1.33-.89-2.24,0-.16,0-.29.01-.42,0-.02,0-.03,0-.05l-.03-.03-.04.05c-1.46,1.73-6.56,7.93-10.78,15.18-4.31,7.39-6.88,14.82-6.88,19.88,0,2.5.99,6.34,2.9,9.12.21-4.8,2.15-7.39,3.35-8.99l.15-.2c1.77-2.36,4.32-5.51,6.45-7.08.9-.67,1.65-1,2.31-1,2.5,0,26.67,8.9,28.67,10.02.26.15.67.53,1.63,2.13l.39.67c2.21,3.87,5.74,11.21,8.57,17.11,1.6,3.33,2.98,6.2,3.79,7.77,2.18,4.16,3.88,6.26,5.82,7.2Z"/><g><g><path d="m55.49,39.8c0,4.22-5.3,7.9-7.53,7.9s-5.15-1.18-5.15-4.33c.61.24,1.3.32,1.97.32,2,0,6.71-1.53,6.71-6.89,0-.76-.14-1.37-.36-1.88,1.64,0,4.37.64,4.37,4.86Z"/><path d="m47.96,48.2c-2.72,0-5.65-1.51-5.65-4.83v-.74l.68.27c.49.19,1.07.29,1.79.29,2.03,0,6.21-1.56,6.21-6.39,0-.64-.11-1.2-.32-1.67l-.32-.71h.77c1.46,0,4.87.52,4.87,5.36,0,4.43-5.46,8.4-8.03,8.4Zm-4.59-4.14c.42,2.46,3.11,3.14,4.59,3.14,1.97,0,7.03-3.52,7.03-7.4,0-3.13-1.58-4.11-3.15-4.32.1.41.15.86.15,1.33,0,5.58-4.86,7.39-7.21,7.39-.52,0-.99-.04-1.42-.14Z"/></g><g><path d="m93.04,38.05c-3.65,3.3-2.71,6.47-4.12,27.9s-8.48,28.72-16.36,28.72c-.75,0-1.45-.1-2.1-.29.11-.02,6.6-1.08,10.22-9.37,3.65-8.36,5.77-26.84,6.12-32.14.35-5.3,2.42-24.05,2.42-24.05,1.86,2.46,3.13,4.4,3.46,4.98,1.06,1.88.35,4.24.35,4.24Z"/><path d="m72.56,95.17c-.81,0-1.54-.1-2.24-.31l-2.13-.63,2.19-.34c.06,0,6.35-1.08,9.84-9.07,3.56-8.15,5.7-26.29,6.08-31.97.35-5.25,2.4-23.89,2.42-24.07l.14-1.25.76,1c1.78,2.34,3.12,4.36,3.5,5.04,1.15,2.04.43,4.52.4,4.63l-.04.13-.1.09c-2.62,2.37-2.74,4.8-3.25,15.03-.16,3.29-.37,7.39-.71,12.53-.72,10.9-3.86,29.19-16.86,29.19Zm17.02-65.03c-.47,4.3-1.99,18.34-2.28,22.77-.38,5.73-2.55,24.03-6.16,32.3-2.41,5.53-6.06,7.93-8.38,8.95,8.91-.15,14.47-10.17,15.67-28.25.34-5.14.54-9.23.71-12.52.52-10.43.65-13.01,3.47-15.62.12-.49.46-2.29-.34-3.72-.25-.45-1.19-1.91-2.67-3.91Z"/></g><g><path d="m35.13,17.57c0,3.18-4.47,7.42-7.77,7.42,0,0-3.53.12-3.53-2.83,0-.71.08-1.19.08-1.19,2.75-.09,6.24-.89,7.22-6.11.04-.36-.04-.71-.19-1.03,2.31,0,4.19.56,4.19,3.74Z"/><path d="m27.29,25.49c-.36,0-2.02-.06-3.08-1.08-.59-.57-.89-1.32-.89-2.24,0-.74.08-1.25.09-1.27l.07-.4h.41c2.66-.1,5.83-.83,6.74-5.72.02-.2-.03-.46-.15-.73l-.33-.71h.78c2.18,0,4.69.48,4.69,4.24,0,3.4-4.71,7.92-8.27,7.92,0,0-.03,0-.07,0Zm-2.94-4.03c-.02.19-.03.43-.03.71,0,.64.19,1.14.58,1.52.87.84,2.42.81,2.44.81,3.07,0,7.28-4.01,7.28-6.92,0-2.42-1.14-3.1-3.01-3.22.03.19.03.39,0,.57-1.09,5.84-5.35,6.43-7.27,6.53Z"/></g><path d="m23.24,21.48l-.14-.02c-1.05-.3-1.79-1.06-2.07-2.15-.48-1.85.46-4.24,2.44-6.22,3.45-3.45,6.74-1.01,6.78-.99.38.38.86.89,1.14,1.51.2.44.28.88.23,1.3v.03c-1.19,6.3-6.09,6.46-7.7,6.52-.23,0-.46.01-.68.01Zm4.26-9.24c-.94,0-2.1.35-3.32,1.56-1.71,1.71-2.57,3.78-2.18,5.26.19.71.64,1.2,1.31,1.42.19,0,.38,0,.58-.01,2.66-.09,5.82-.82,6.74-5.69.03-.23-.02-.48-.15-.75-.22-.48-.61-.9-.89-1.18-.03-.02-.86-.62-2.1-.62Z"/><g><path d="m57.97,13.33c0,1.77-3.06,4.94-5.41,4.94,0,0-2.59.12-2.59-2,0-3.3,3.3-5.06,5.53-5.06,1.06,0,2.47.36,2.47,2.12Z"/><path d="m52.47,18.78c-.33,0-1.54-.05-2.32-.8-.45-.43-.68-1-.68-1.7,0-3.58,3.57-5.56,6.03-5.56,1.86,0,2.97.98,2.97,2.62,0,2.07-3.3,5.44-5.92,5.44,0,0-.03,0-.08,0Zm3.03-7.07c-2.06,0-5.03,1.63-5.03,4.56,0,.42.12.73.37.97.59.57,1.69.53,1.7.53,2.18,0,4.94-3.01,4.94-4.44,0-.4,0-1.62-1.97-1.62Z"/></g><path d="m94.97,25.99c-.38-.85-.98-1.32-1.69-1.32-4.47,0-6.46-2.48-8.52-5.12l-.08-.1-.62-.81s-.04-.04-.05-.06l-.17.59-.18.59-.4,1.34-.16.55-.16.55c.06.07.13.14.2.21l.6.63c1.64,1.77,3.33,3.79,4.97,5.92h0c.04.06.08.12.12.17.11.15.22.29.32.43.15.2.3.4.44.6.08.11.16.22.24.32.2.29.4.56.58.81,1,1.41,1.64,2.41,1.85,2.77l.34.61.32-.36.14-.16c.08-.09.16-.18.23-.27,2.12-2.55,2.54-5.97,1.68-7.89Zm-2.22,6.96c-.08-.12-.16-.24-.25-.38-.17-.27-.38-.57-.6-.9-.61-.88-1.39-1.97-2.27-3.14-.25-.33-.5-.66-.76-.98-1.59-2.03-3.22-3.95-4.81-5.62l.36-1.2c2,2.53,4.24,4.94,8.86,4.94.39,0,.66.45.78.73.57,1.29.51,4.15-1.31,6.55Z"/><g><path d="m84.21,19.65l-.71,2.42c-.13-.14-.27-.28-.4-.42-.02-.02-.04-.03-.05-.05-.26-.26-.52-.52-.78-.78-.61-.6-1.23-1.19-1.86-1.74-.23-.21-.46-.4-.69-.6-.24-.2-.47-.39-.71-.58-.23-.19-.47-.38-.71-.55-.19-.16-.39-.3-.58-.43-.22-.17-.44-.32-.67-.47-.28-.19-.55-.38-.83-.54-.21-.14-.42-.26-.63-.37-.17-.11-.34-.2-.51-.28-.17-.1-.34-.18-.51-.26-.17-.09-.34-.17-.51-.24-.18-.08-.36-.16-.53-.22-.1-.05-.2-.08-.29-.11-.04-.02-.08-.03-.11-.04-.09-.04-.18-.07-.27-.09-.04-.02-.09-.04-.13-.04-.08-.03-.15-.06-.23-.07-.18-.06-.35-.11-.53-.15-.7-.08-2.44.77-4.51,1.92v-3.2s4.28-.96,5.93-.96,6.71,3.06,9.41,6.12c.36.4.7.82,1.04,1.25.12.16.24.32.37.48Z"/><path d="m84.68,19.45l-.07-.11c-.19-.24-.37-.47-.55-.7-.02-.02-.04-.04-.05-.06l-.17.59c-.34-.43-.68-.85-1.04-1.25-2.7-3.06-7.76-6.12-9.41-6.12s-5.93.96-5.93.96v3.2c-.16.09-.33.18-.5.28v.57l.75-.41c2.32-1.29,3.74-1.92,4.15-1.87,3.15.75,6.88,3.33,11.08,7.67.06.07.13.14.2.21l.6.63.16-.55.16-.56.36-1.2.34-1.18-.08-.1Zm-16.72-6.29c1.09-.23,4.14-.86,5.43-.86,1.42,0,6.32,2.89,9.04,5.96.41.46.8.95,1.23,1.5l-.4,1.34c-4.17-4.24-7.93-6.78-11.23-7.56-.05,0-.1-.01-.15-.01-.69,0-1.84.47-3.92,1.59v-1.96Z"/></g><g><path d="m47.42,8.07l-3.63,3.04c-.2-1.83-.82-4.63-3.36-4.63-.24,0-.48,0-.71.01.99-.36,2.29-.66,3.89-.66,2.95,0,3.65,1.62,3.81,2.24Z"/><path d="m43.37,12.12h0c-.18-2.6-.75-5.14-2.94-5.14-1.15,0-2.22.07-3.23.28-.38.08-.75.17-1.11.29l-.69.58,1.9-.38c.91-.19,1.93-.27,3.13-.27,1.47,0,2.22,1.44,2.44,4.67l.07.98.47-.39c0-.21-.03-.41-.04-.62Z"/></g><path d="m74.56,37.26c-2.11,0-4.36-1.74-4.36-4.33s2.34-4.33,4.6-4.33c3.11,0,4.74,2.26,4.74,4.5s-2.8,4.15-4.97,4.15Zm.24-7.65c-1.77,0-3.6,1.24-3.6,3.33s1.74,3.33,3.36,3.33,3.97-1.59,3.97-3.15c0-1.69-1.17-3.5-3.74-3.5Z"/><path d="m70.92,28.19c-2.17,0-3.42-1.45-3.42-3.97s2.91-4.33,4.83-4.33c2.27,0,3.8,1.53,3.8,3.8,0,2.08-1.36,4.5-5.21,4.5Zm1.41-7.3c-1.32,0-3.83,1.29-3.83,3.33s.79,2.97,2.42,2.97c3.91,0,4.21-2.68,4.21-3.5,0-1.72-1.07-2.8-2.8-2.8Z"/><path d="m63.85,40.91c-2.17,0-3.42-1.45-3.42-3.97s2.91-4.33,4.83-4.33c2.27,0,3.8,1.53,3.8,3.8,0,2.08-1.36,4.5-5.21,4.5Zm1.41-7.3c-1.32,0-3.83,1.29-3.83,3.33s.79,2.97,2.42,2.97c3.9,0,4.21-2.68,4.21-3.5,0-1.72-1.07-2.8-2.8-2.8Z"/><path d="m61.62,32.31c-1.4,0-3.07-.57-3.07-3.27s2.91-4.33,4.83-4.33c1.17,0,2.85,1.02,2.85,2.85,0,3.92-2.51,4.74-4.62,4.74Zm1.77-6.59c-1.32,0-3.83,1.29-3.83,3.33,0,1.59.62,2.27,2.07,2.27,2.47,0,3.62-1.19,3.62-3.74,0-1.23-1.19-1.85-1.85-1.85Z"/><g><path d="m55.14,25.46c0,.35-.94,2.59-2.71,2.59s-1.53-1.06-1.53-1.53.82-2.59,2.94-2.59c1.29,0,1.29,1.18,1.29,1.53Z"/><path d="m52.43,28.55c-.76,0-1.3-.18-1.64-.54-.43-.45-.41-1.02-.39-1.36v-.13c0-.74,1.04-3.09,3.45-3.09.54,0,1.79.2,1.79,2.03,0,.52-1.08,3.09-3.21,3.09Zm1.41-4.12c-1.82,0-2.44,1.89-2.44,2.09v.17c-.02.28-.02.5.11.63.14.15.47.23.92.23,1.36,0,2.15-1.78,2.21-2.11,0-.74-.22-1.01-.79-1.01Z"/></g><g><path d="m44.31,22.4c0,.35-.94,2.59-2.71,2.59s-1.53-1.06-1.53-1.53.82-2.59,2.94-2.59c1.29,0,1.29,1.18,1.29,1.53Z"/><path d="m41.6,25.49c-.76,0-1.3-.18-1.64-.54-.43-.45-.41-1.02-.39-1.36v-.13c0-.74,1.04-3.09,3.45-3.09.54,0,1.79.2,1.79,2.03,0,.52-1.08,3.09-3.21,3.09Zm1.41-4.12c-1.82,0-2.44,1.89-2.44,2.09v.17c-.02.28-.02.5.11.63.14.15.47.23.92.23,1.36,0,2.15-1.78,2.21-2.11,0-.74-.22-1.01-.79-1.01Z"/></g><path d="m27.46,44.47c-1.74,0-2.66-1.05-2.92-1.66l-.09-.21,1.96-4.07-3.46-1.12.15-.48c.3-.91.98-2.7,2.23-4.44l.21-.3,3.39,1.1,2.11-4.38h.3c.28-.03,2.77-.1,3.74.73l.29.25-2.29,4.74,3.26,1.05-.14.47c-.6,2.04-2.43,4.29-2.51,4.39l-.22.27-2.92-.94-2.17,4.51-.26.04c-.23.03-.46.05-.67.05Zm-1.9-1.88c.22.32.84.97,2.16.87l2.32-4.81,3.09,1c.44-.57,1.44-1.97,1.96-3.31l-3.4-1.1,2.42-5.01c-.61-.25-1.67-.34-2.43-.32l-2.22,4.61-3.52-1.14c-.86,1.27-1.41,2.54-1.72,3.39l3.59,1.16-2.24,4.66Z"/><g><path d="m37.49,33.58c0,.68-.18,1.69-.56,2.82-.44,1.36-1.16,2.9-2.15,4.3-1.63,2.29-4.01,4.18-7.18,4.18-1.48,0-2.48-.46-3.14-1.14-1.23-1.26-1.33-3.28-1.33-4.51,0-.43.15-1.2.45-2.15l3.53,1.14-2.11,4.38s.7,1.65,3.06,1.31l2.25-4.66,3.01.97s1.83-2.25,2.42-4.21l-3.34-1.08,2.37-4.91c-.85-.73-3.4-.62-3.4-.62l-2.17,4.5-3.46-1.12c1.37-1.9,3.31-3.56,5.9-3.95.37-.05.75-.08,1.15-.08.93,0,1.71.17,2.36.48,1.58.76,2.35,2.34,2.35,4.35Z"/><path d="m27.6,45.38c-1.48,0-2.66-.44-3.5-1.29-1.32-1.35-1.47-3.42-1.47-4.85,0-.53.17-1.37.48-2.3l.15-.48,4.55,1.47-2.24,4.66c.22.32.84.97,2.16.87l2.32-4.81,3.09,1c.43-.57,1.44-1.97,1.96-3.31l-3.4-1.1,2.42-5.01c-.61-.25-1.67-.34-2.43-.32l-2.22,4.61-4.53-1.46.4-.56c1.7-2.36,3.85-3.8,6.23-4.15,1.37-.2,2.75-.06,3.79.44,1.7.81,2.63,2.52,2.63,4.8,0,.77-.21,1.85-.58,2.98-.36,1.11-1.04,2.78-2.22,4.43-1.42,2-3.9,4.39-7.58,4.39Zm2.97-5.51l-2.15,4.47c2.82-.32,4.77-2.27,5.95-3.92.86-1.21,1.6-2.69,2.09-4.16.34-1.03.53-2,.53-2.67,0-1.21-.3-2.76-1.63-3.65l-2.27,4.71,3.26,1.05-.14.47c-.6,2.04-2.43,4.29-2.51,4.39l-.22.27-2.92-.94Zm-6.66-2.15c-.21.72-.28,1.24-.28,1.51,0,1.26.12,3.06,1.19,4.16.21.22.46.4.74.55-.54-.35-.87-.8-1.01-1.13l-.09-.21,1.96-4.07-2.5-.81Zm2.65-5.19l2.37.77,1.8-3.75c-1.56.46-2.96,1.46-4.18,2.98Z"/></g><path d="m44.78,44.2c-.84,0-1.55-.12-2.16-.36-1.64-.65-2.46-2.16-2.46-4.5,0-5.6,4.61-7.09,7.33-7.09.12,0,2.99.03,4.09,2.48.27.6.41,1.3.41,2.08,0,5.58-4.86,7.39-7.21,7.39Zm2.71-10.95c-.65,0-6.33.17-6.33,6.09,0,1.91.6,3.08,1.83,3.57.49.19,1.07.29,1.79.29,2.03,0,6.21-1.56,6.21-6.39,0-.64-.11-1.2-.32-1.67-.84-1.87-3.16-1.89-3.18-1.89Z"/><g><path d="m50.65,61.03l-19.52-6.74c-2.59,6.71-9.89,15.77-16.48,15.77-2.32,0-4.2-1.11-5.64-2.74-.16-5.79,2.12-8.6,3.41-10.32,1.07-1.43,3.98-5.24,6.34-6.98h0c.75-.55,1.45-.9,2.01-.9,2.35,0,26.6,8.95,28.42,9.97.3.17.8.87,1.45,1.95Z"/><path d="m14.65,70.57c-2.28,0-4.3-.98-6.02-2.91l-.12-.14v-.18c-.17-5.76,2.04-8.7,3.36-10.45l.14-.18c2.55-3.41,4.78-5.86,6.45-7.09.91-.67,1.67-1,2.31-1,2.51,0,26.67,8.91,28.67,10.03.27.15.67.52,1.64,2.13l.71,1.18-20.36-7.03c-2.75,6.71-9.92,15.64-16.77,15.64Zm-5.15-3.44c1.49,1.62,3.22,2.44,5.15,2.44,6.47,0,13.58-9.14,16.01-15.45l.17-.45,18.61,6.42c-.33-.45-.46-.55-.49-.57-1.78-1-26-9.9-28.18-9.9-.29,0-.82.14-1.71.8-1.11.82-3.09,2.68-6.24,6.88l-.14.18c-1.31,1.74-3.28,4.35-3.17,9.64Z"/></g><g><path d="m47.83,7.73c-.29-.85-1.23-2.4-4.22-2.4-4.05,0-6.32,1.86-6.41,1.93,1.01-.21,2.08-.28,3.23-.28,2.19,0,2.76,2.54,2.94,5.13l4.49-3.76.1-.08s-.02-.22-.13-.54Zm-4.04,3.38c-.2-1.83-.82-4.63-3.36-4.63-.24,0-.48,0-.71.01.99-.36,2.29-.66,3.89-.66,2.95,0,3.65,1.62,3.81,2.24l-3.63,3.04Z"/><path d="m84.01,18.58l-.17.59c-.34-.43-.68-.85-1.04-1.25-2.7-3.06-7.76-6.12-9.41-6.12s-5.93.96-5.93.96v3.2c-.16.09-.33.18-.5.28v-3.1l-18.49-4.64-5.06,4.24c0-.21-.03-.41-.04-.62h0s4.49-3.77,4.49-3.77l.1-.08s-.02-.22-.13-.54c-.29-.85-1.23-2.4-4.22-2.4-4.05,0-6.32,1.86-6.41,1.93-.38.08-.75.17-1.11.29l.79-.67c.1-.09,2.46-2.05,6.73-2.05,3.09,0,4.22,1.57,4.63,2.58l19.23,4.84c.7-.16,4.36-.95,5.92-.95,1.8,0,6.98,3.11,9.79,6.29.28.31.55.64.83.99Z"/></g></g><text x="0" y="115" fill="#000000" font-size="5px" font-weight="bold" font-family="'Helvetica Neue', Helvetica, Arial-Unicode, Arial, Sans-serif">Created by Ryan Dwyer</text><text x="0" y="120" fill="#000000" font-size="5px" font-weight="bold" font-family="'Helvetica Neue', Helvetica, Arial-Unicode, Arial, Sans-serif">from the Noun Project</text></svg>