<svg xmlns="http://www.w3.org/2000/svg" viewBox="0 0 100 125" x="0px" y="0px"><defs><style>.cls-1{fill:none;}</style></defs><g data-name="Livello 2"><g><rect class="cls-1" width="100" height="100"/><path d="M20.09,35.5a.75.75,0,0,1-.54-.22l-2.47-2.47,0-.33V30.1a2.24,2.24,0,0,1,2.24-2.24h1.58a2.24,2.24,0,0,1,2.23,2.24v2.67l-.23.25-2.26,2.26A.74.74,0,0,1,20.09,35.5Zm-1.67-3.27,1.67,1.66,1.66-1.66V30.1a.88.88,0,0,0-.87-.88H19.3a.88.88,0,0,0-.88.88Z"/><path d="M20.88,44.86H19.3a2.24,2.24,0,0,1-2.24-2.24V40l.22-.25,2.27-2.27a.75.75,0,0,1,1.07,0l2.47,2.47,0,.33v2.38A2.24,2.24,0,0,1,20.88,44.86Zm-2.46-4.37v2.13a.88.88,0,0,0,.88.88h1.58a.88.88,0,0,0,.87-.88V40.49l-1.66-1.66Z"/><path d="M26.34,39.39H23.68l-.25-.23L21.16,36.9a.78.78,0,0,1,0-1.08l2.47-2.47.34,0h2.37a2.24,2.24,0,0,1,2.24,2.24v1.58A2.24,2.24,0,0,1,26.34,39.39ZM24.22,38h2.12a.88.88,0,0,0,.88-.88V35.57a.88.88,0,0,0-.88-.88H24.22l-1.67,1.67Z"/><path d="M16.2,39.39H13.83a2.24,2.24,0,0,1-2.24-2.24V35.57a2.24,2.24,0,0,1,2.24-2.24h2.65l.25.22L19.21,36l0,.34a.79.79,0,0,1-.22.54l-2.47,2.46Zm-2.37-4.7a.88.88,0,0,0-.88.88v1.58a.88.88,0,0,0,.88.88H16l1.67-1.67L16,34.69ZM18,36.78h0Z"/><path d="M34.57,55.66a6,6,0,1,1,6-6A6,6,0,0,1,34.57,55.66Zm0-10.65a4.65,4.65,0,1,0,4.65,4.64A4.64,4.64,0,0,0,34.57,45Z"/><path d="M65.35,55.66a6,6,0,1,1,6-6A6,6,0,0,1,65.35,55.66Zm0-10.65A4.65,4.65,0,1,0,70,49.65,4.64,4.64,0,0,0,65.35,45Z"/><circle cx="50" cy="42.56" r="0.6"/><circle cx="48.19" cy="42.56" r="0.6"/><circle cx="51.81" cy="42.56" r="0.6"/><circle cx="53.62" cy="42.56" r="0.6"/><circle cx="46.38" cy="42.56" r="0.6"/><circle cx="50.91" cy="44.07" r="0.6"/><circle cx="49.09" cy="44.07" r="0.6"/><circle cx="52.72" cy="44.07" r="0.6"/><circle cx="47.28" cy="44.07" r="0.6"/><path d="M15.57,82l-.93-1c4.51-4.24,5.71-9.53,6.59-13.39A13.9,13.9,0,0,1,22.73,63l1.11.79a13.66,13.66,0,0,0-1.29,4.08C21.64,71.93,20.39,77.45,15.57,82Z"/><path d="M27.57,28.76a1.93,1.93,0,0,1-1.1-.36,1.85,1.85,0,0,1-.76-1.23l-.31-1.92A1.89,1.89,0,0,1,27,23.08a1.88,1.88,0,0,1,2.16,1.56l.32,1.92A1.91,1.91,0,0,1,29.11,28a1.88,1.88,0,0,1-1.23.76h0A1.63,1.63,0,0,1,27.57,28.76Zm-.31-4.34h-.08a.55.55,0,0,0-.35.22.53.53,0,0,0-.09.39L27.06,27a.52.52,0,0,0,.21.35.53.53,0,0,0,.39.09h0a.51.51,0,0,0,.34-.21.52.52,0,0,0,.09-.4l-.31-1.92A.53.53,0,0,0,27.26,24.42Z"/><path d="M91.06,81.83a3.18,3.18,0,0,1-2.77-2l0-.09c-.07-.2-7-19.34-10.64-26.09a79.73,79.73,0,0,0-7.59-11,23.54,23.54,0,0,1-2.47-3.43,9.68,9.68,0,0,1-.48-5.09c.2-1.87,2.09-10.78,2.17-11.16h0a2.76,2.76,0,0,0-.47-1.83,2.43,2.43,0,0,0-1.64-.84c-9.44-.85-17-.82-17.13-.82s-7.7,0-17.14.83a2.46,2.46,0,0,0-1.63.83A2.76,2.76,0,0,0,30.77,23c.07.34,2,9.25,2.16,11.12a9.68,9.68,0,0,1-.48,5.09A23.54,23.54,0,0,1,30,42.66a79.73,79.73,0,0,0-7.59,11c-3.65,6.75-10.57,25.89-10.64,26.09l0,.09c-1.36,2.5-3.23,1.94-3.31,1.92C3.29,80.17.81,74.13,1,63.82,1.34,47.2,8.93,23.21,12.2,22.33A125.16,125.16,0,0,1,32.67,19l.27,0h0c9.43-.84,16.94-.81,17.06-.81s7.64,0,17.06.81h0l.27,0A125.34,125.34,0,0,1,87.8,22.33C91.07,23.21,98.66,47.2,99,63.82c.2,10.31-2.28,16.35-7.39,17.94A1.85,1.85,0,0,1,91.06,81.83ZM30,20.6a119.36,119.36,0,0,0-17.41,3c-2.14.94-11.06,26.51-10.12,43.88C2.83,74.91,5,79.27,8.81,80.46c.08,0,.9.18,1.68-1.23C11,77.92,17.55,59.74,21.19,53a80.83,80.83,0,0,1,7.72-11.19,27.87,27.87,0,0,0,2.29-3.13,8.4,8.4,0,0,0,.38-4.4c-.2-1.8-2.13-10.94-2.15-11A4.29,4.29,0,0,1,30,20.6ZM89.51,79.23c.78,1.41,1.61,1.25,1.7,1.23,3.81-1.19,6-5.55,6.36-12.94.94-17.37-8-42.94-10.14-43.88A116.25,116.25,0,0,0,70,20.6a4.33,4.33,0,0,1,.54,2.62c0,.13-2,9.27-2.16,11.07a8.4,8.4,0,0,0,.38,4.4,27.87,27.87,0,0,0,2.29,3.13A80.83,80.83,0,0,1,78.81,53C82.45,59.74,89,77.92,89.51,79.23Z"/><path d="M14.54,82.56h-.06c-.57,0-5.21-.66-5.73-.73l.18-1.35c2,.27,5,.67,5.55.72a1.21,1.21,0,0,0,.21-.41c.05-.14,3.06-7.83,4.2-10.51,2-4.76,4.08-8,6.27-10.06s4.52-1.77,6.45-1.44a10.66,10.66,0,0,0,1.87.22h33a10.66,10.66,0,0,0,1.87-.22c1.93-.33,4.11-.7,6.45,1.44,2.19,2,4.24,5.3,6.27,10.06,1.14,2.68,4.15,10.37,4.18,10.45a1.46,1.46,0,0,0,.23.47c.6,0,3.59-.45,5.55-.72l.18,1.35c-.52.07-5.16.71-5.73.73-.81,0-1.33-.73-1.52-1.4,0,0-3-7.69-4.14-10.35-.72-1.68-2.9-6.8-5.94-9.58-1.85-1.7-3.52-1.41-5.3-1.11a12.17,12.17,0,0,1-2.1.24h-33a12.17,12.17,0,0,1-2.1-.24c-1.78-.3-3.45-.59-5.3,1.11-3,2.78-5.22,7.9-5.94,9.58C19,73.46,16,81.14,16,81.21,15.81,81.81,15.32,82.56,14.54,82.56Z"/><path d="M84.43,82c-4.82-4.53-6.07-10-7-14.07a13.66,13.66,0,0,0-1.29-4.08L77.27,63a13.9,13.9,0,0,1,1.5,4.56c.88,3.86,2.08,9.15,6.59,13.39Z"/><path d="M72.43,28.76a1.63,1.63,0,0,1-.31,0A1.88,1.88,0,0,1,70.89,28a1.91,1.91,0,0,1-.33-1.41l.32-1.92a1.88,1.88,0,1,1,3.72.61l-.31,1.92A1.9,1.9,0,0,1,72.43,28.76Zm.31-4.34a.53.53,0,0,0-.52.44l-.31,1.92a.52.52,0,0,0,.09.4.51.51,0,0,0,.34.21h0A.53.53,0,0,0,73,27L73.26,25a.53.53,0,0,0-.44-.61Z"/><path d="M61.45,40.29H38.55c-1.72,0-5.7,0-7.52-9.15l1.34-.27c1.6,8.05,4.69,8.06,6.18,8.06H61.44c1.5,0,4.59,0,6.19-8.06l1.34.27C67.15,40.27,63.17,40.29,61.45,40.29Z"/><path d="M52,55.5H48a.68.68,0,1,1,0-1.36H52a.68.68,0,0,1,0,1.36Z"/><circle cx="49.98" cy="57.32" r="0.6"/><path d="M80,33.21a3.83,3.83,0,1,1,3.83-3.83A3.84,3.84,0,0,1,80,33.21Zm0-6.3a2.47,2.47,0,1,0,2.47,2.47A2.48,2.48,0,0,0,80,26.91Z"/><path d="M80,47.29a3.83,3.83,0,1,1,3.83-3.83A3.83,3.83,0,0,1,80,47.29ZM80,41a2.47,2.47,0,1,0,2.47,2.46A2.47,2.47,0,0,0,80,41Z"/><path d="M87.08,40.29a3.83,3.83,0,1,1,3.83-3.83A3.84,3.84,0,0,1,87.08,40.29Zm0-6.3a2.47,2.47,0,1,0,2.47,2.47A2.48,2.48,0,0,0,87.08,34Z"/><path d="M73,40.29a3.83,3.83,0,1,1,3.83-3.83A3.84,3.84,0,0,1,73,40.29ZM73,34a2.47,2.47,0,1,0,2.47,2.47A2.47,2.47,0,0,0,73,34Z"/><path d="M14.41,22.64H13.05v-2l.27-.2a15.78,15.78,0,0,1,6.1-2.64c3.56-.65,6.08-.31,6.91.08l.4.18,0,2.32-1.36,0,0-1.37a14.9,14.9,0,0,0-5.69.15,14.69,14.69,0,0,0-5.26,2.2Z"/><path d="M86.83,22.64H85.47V21.35a14.69,14.69,0,0,0-5.26-2.2A14.89,14.89,0,0,0,74.52,19l0,1.37-1.36,0,0-2.32.4-.18c.82-.39,3.35-.73,6.91-.08a15.78,15.78,0,0,1,6.1,2.64l.27.2Z"/></g></g><text x="0" y="115" fill="#000000" font-size="5px" font-weight="bold" font-family="'Helvetica Neue', Helvetica, Arial-Unicode, Arial, Sans-serif">Created by Alessandro Curci</text><text x="0" y="120" fill="#000000" font-size="5px" font-weight="bold" font-family="'Helvetica Neue', Helvetica, Arial-Unicode, Arial, Sans-serif">from the Noun Project</text></svg>