<svg xmlns="http://www.w3.org/2000/svg" xmlns:xlink="http://www.w3.org/1999/xlink" version="1.1" x="0px" y="0px" viewBox="0 0 100 125" enable-background="new 0 0 100 100" xml:space="preserve"><g><path d="M64.138,39.503c-1.48,0-2.684,1.204-2.684,2.684c0,1.48,1.203,2.685,2.684,2.685c1.479,0,2.685-1.204,2.685-2.685   C66.822,40.707,65.617,39.503,64.138,39.503z M64.138,43.669c-0.817,0-1.482-0.665-1.482-1.482c0-0.817,0.665-1.482,1.482-1.482   s1.482,0.665,1.482,1.482C65.62,43.004,64.955,43.669,64.138,43.669z"/><path d="M55.837,45.021c1.202,0,2.181-0.979,2.181-2.182c0-1.203-0.979-2.182-2.181-2.182c-1.203,0-2.182,0.979-2.182,2.182   C53.655,44.042,54.634,45.021,55.837,45.021z M55.837,41.859c0.539,0,0.979,0.439,0.979,0.979s-0.439,0.979-0.979,0.979   c-0.54,0-0.98-0.439-0.98-0.979S55.297,41.859,55.837,41.859z"/><path d="M45.308,40.657c-1.203,0-2.182,0.979-2.182,2.182c0,1.203,0.979,2.182,2.182,2.182c1.203,0,2.182-0.979,2.182-2.182   C47.489,41.636,46.51,40.657,45.308,40.657z M45.308,43.818c-0.54,0-0.979-0.439-0.979-0.979s0.439-0.979,0.979-0.979   s0.979,0.439,0.979,0.979S45.848,43.818,45.308,43.818z"/><path d="M73.56,39.503c-1.479,0-2.684,1.204-2.684,2.684c0,1.48,1.204,2.685,2.684,2.685c1.48,0,2.686-1.204,2.686-2.685   C76.245,40.707,75.04,39.503,73.56,39.503z M73.56,43.669c-0.816,0-1.481-0.665-1.481-1.482c0-0.817,0.665-1.482,1.481-1.482   c0.818,0,1.482,0.665,1.482,1.482C75.042,43.004,74.378,43.669,73.56,43.669z"/><path d="M68.85,40.461c1.479,0,2.684-1.205,2.684-2.685c0-1.479-1.204-2.684-2.684-2.684c-1.48,0-2.686,1.204-2.686,2.684   C66.164,39.256,67.369,40.461,68.85,40.461z M68.85,36.294c0.816,0,1.481,0.665,1.481,1.481c0,0.817-0.665,1.482-1.481,1.482   c-0.818,0-1.482-0.665-1.482-1.482C67.367,36.959,68.031,36.294,68.85,36.294z"/><path d="M68.85,43.914c-1.48,0-2.686,1.203-2.686,2.684s1.205,2.684,2.686,2.684c1.479,0,2.684-1.204,2.684-2.684   S70.329,43.914,68.85,43.914z M68.85,48.08c-0.818,0-1.482-0.666-1.482-1.482s0.664-1.482,1.482-1.482   c0.816,0,1.481,0.665,1.481,1.482S69.666,48.08,68.85,48.08z"/><path d="M59.746,48.648c-2.306,0-4.183,1.875-4.183,4.182c0,2.306,1.877,4.182,4.183,4.182s4.183-1.876,4.183-4.182   C63.929,50.523,62.052,48.648,59.746,48.648z M59.746,55.811c-1.643,0-2.979-1.337-2.979-2.98c0-1.643,1.337-2.98,2.979-2.98   c1.644,0,2.979,1.338,2.979,2.98C62.726,54.474,61.39,55.811,59.746,55.811z"/><path d="M59.746,46.597c-3.437,0-6.233,2.797-6.233,6.233c0,3.438,2.797,6.233,6.233,6.233c3.438,0,6.233-2.796,6.233-6.233   C65.979,49.394,63.184,46.597,59.746,46.597z M59.746,57.862c-2.774,0-5.031-2.258-5.031-5.032s2.257-5.031,5.031-5.031   s5.032,2.257,5.032,5.031S62.521,57.862,59.746,57.862z"/><path d="M32.512,38.005c-2.306,0-4.182,1.876-4.182,4.182c0,2.306,1.876,4.182,4.182,4.182c2.306,0,4.182-1.876,4.182-4.182   C36.694,39.881,34.818,38.005,32.512,38.005z M32.512,45.167c-1.643,0-2.98-1.337-2.98-2.98s1.337-2.98,2.98-2.98   s2.98,1.337,2.98,2.98S34.155,45.167,32.512,45.167z"/><path d="M50.417,37.732c1.721,0,3.123-1.4,3.123-3.122c0-1.722-1.401-3.122-3.123-3.122c-1.721,0-3.121,1.4-3.121,3.122   C47.295,36.332,48.696,37.732,50.417,37.732z M50.417,32.691c1.059,0,1.919,0.861,1.919,1.919s-0.86,1.919-1.919,1.919   c-1.058,0-1.919-0.861-1.919-1.919S49.358,32.691,50.417,32.691z"/><path d="M38.746,42.188c0-3.437-2.796-6.233-6.234-6.233c-3.437,0-6.233,2.796-6.233,6.233c0,3.437,2.796,6.233,6.233,6.233   C35.949,48.42,38.746,45.624,38.746,42.188z M32.512,47.218c-2.774,0-5.031-2.257-5.031-5.031c0-2.774,2.257-5.031,5.031-5.031   c2.774,0,5.032,2.257,5.032,5.031C37.543,44.961,35.286,47.218,32.512,47.218z"/><path d="M46.271,51.018h-2.74v-2.742c0-0.332-0.27-0.601-0.601-0.601h-3.083c-0.332,0-0.601,0.269-0.601,0.601v2.742h-2.741   c-0.333,0-0.602,0.27-0.602,0.601v3.083c0,0.332,0.269,0.602,0.602,0.602h2.741v2.741c0,0.332,0.27,0.601,0.601,0.601h3.083   c0.332,0,0.601-0.269,0.601-0.601v-2.741h2.74c0.333,0,0.602-0.27,0.602-0.602v-3.083C46.872,51.287,46.603,51.018,46.271,51.018z    M45.67,54.1h-2.741c-0.332,0-0.602,0.271-0.602,0.602v2.741h-1.88v-2.741c0-0.331-0.27-0.602-0.602-0.602h-2.741v-1.879h2.741   c0.332,0,0.602-0.271,0.602-0.603v-2.741h1.88v2.741c0,0.332,0.27,0.603,0.602,0.603h2.741V54.1z"/><path d="M86.924,62.447c-1.734-13.343-8.877-27.961-9.181-28.577c-0.126-0.256-0.339-0.459-0.601-0.572l-1.086-0.471l-0.33-1.261   c-0.023-0.092-0.06-0.181-0.104-0.265c-0.075-0.14-0.795-1.389-2.874-2.203c-1.9-0.743-6.634-2.473-9.53-2.473   c-0.996,0-1.752,0.197-2.303,0.601c-0.389,0.196-2.152,1.038-3.782,1.038H43.354c-1.632,0-3.397-0.843-3.783-1.038   c-0.551-0.405-1.306-0.602-2.303-0.602c-2.896,0-7.629,1.729-9.53,2.473c-2.079,0.814-2.799,2.063-2.875,2.203   c-0.045,0.084-0.081,0.173-0.105,0.265l-0.347,1.328l-0.823,0.454c-0.215,0.119-0.389,0.301-0.498,0.522   c-0.304,0.616-7.447,15.234-9.18,28.577c-0.649,4.994,0.06,8.709,2.108,11.04c1.992,2.268,4.665,2.514,5.722,2.514   c0.113,0,0.214-0.003,0.301-0.007c0.169,0.05,0.35,0.076,0.536,0.076c0,0,0.001,0,0.001,0c1.496-0.001,3.629-1.428,10.613-8.95   c0.681-0.733,1.218-1.312,1.545-1.64c1.018-1.018,3.183-1.378,4.729-1.378c0.095,0,0.153,0.002,0.161,0.002c0.015,0,0.03,0,0.046,0   h21.49c0.014,0,0.029,0,0.043,0c0.011,0,0.068-0.002,0.164-0.002c1.545,0,3.71,0.36,4.729,1.378   c0.327,0.328,0.864,0.906,1.545,1.64c6.983,7.523,9.118,8.95,10.613,8.95c0.186,0,0.365-0.026,0.536-0.076   c0.086,0.004,0.188,0.007,0.301,0.007c1.057,0,3.729-0.246,5.723-2.514C86.863,71.156,87.572,67.441,86.924,62.447z M62.139,29.3   c0.07-0.038,0.136-0.082,0.196-0.134c0.003-0.001,0.193-0.137,0.883-0.137c2.558,0,7.271,1.767,8.653,2.308   c0.971,0.379,1.424,0.845,1.583,1.041l0.16,0.613c-8.351-3.798-11.228-0.962-11.359-0.824c-0.018,0.018-0.034,0.038-0.05,0.059   c-0.002,0.004-0.104,0.14-0.323,0.405l-1.405-2.612C61.43,29.68,62.087,29.329,62.139,29.3z M57.133,30.669   c0.746,0,1.491-0.122,2.171-0.292l1.738,3.229c-0.568,0.636-1.362,1.487-2.435,2.56c-2.091,2.091-2.943,2.31-3.047,2.329   c-0.012,0-0.022,0-0.034,0H45.308c-0.011,0-0.023,0-0.034,0c-0.104-0.02-0.957-0.238-3.047-2.329   c-1.128-1.128-1.952-2.015-2.524-2.66l1.662-3.086c0.63,0.147,1.309,0.25,1.99,0.25H57.133z M28.614,31.338   c1.384-0.542,6.097-2.308,8.654-2.308c0.689,0,0.88,0.135,0.88,0.135c0.062,0.051,0.128,0.097,0.199,0.135   c0.056,0.03,0.789,0.421,1.834,0.778l-1.317,2.446c-0.157-0.193-0.233-0.295-0.236-0.299c-0.016-0.021-0.032-0.041-0.05-0.059   c-0.134-0.14-3.097-3.068-11.755,1.003l0.208-0.792C27.191,32.183,27.645,31.717,28.614,31.338z M83.009,71.9   c-1.345,1.53-3.187,1.695-3.916,1.695c-0.216,0-0.347-0.014-0.348-0.014l0,0c-0.192-0.024-0.386-0.002-0.565,0.063   c-1.61-0.442-6.983-6.23-8.774-8.161c-0.698-0.751-1.249-1.345-1.608-1.704c-1.88-1.879-5.121-2.083-6.428-2.083   c-0.111,0-0.188,0.002-0.228,0.004h-21.45c-0.038-0.002-0.116-0.004-0.226-0.004c-1.307,0-4.548,0.204-6.429,2.083   c-0.359,0.359-0.91,0.953-1.607,1.703c-1.798,1.938-7.205,7.763-8.769,8.166c-0.136-0.051-0.281-0.076-0.426-0.076   c-0.046,0-0.092,0.003-0.138,0.008c-0.001,0-0.134,0.015-0.355,0.015c-0.729,0-2.572-0.165-3.916-1.695   c-1.549-1.764-2.079-4.926-1.53-9.144c1.501-11.555,7.398-24.536,8.697-27.291c9.237-5.132,12.455-2.691,12.703-2.481   c0.197,0.259,1.24,1.588,3.682,4.03c2.369,2.369,3.482,2.719,3.964,2.681h10.152c0.021,0.001,0.046,0.003,0.07,0.003   c0.517,0,1.634-0.423,3.895-2.684c2.432-2.433,3.476-3.76,3.679-4.027c0.266-0.223,3.156-2.361,11.189,1.676   c0.073,0.054,0.153,0.1,0.238,0.137l0.218,0.095c0.344,0.178,0.698,0.37,1.06,0.571c1.296,2.748,7.194,15.723,8.697,27.291   C85.087,66.975,84.559,70.136,83.009,71.9z"/></g><text x="0" y="115" fill="#000000" font-size="5px" font-weight="bold" font-family="'Helvetica Neue', Helvetica, Arial-Unicode, Arial, Sans-serif">Created by Ryan Beck</text><text x="0" y="120" fill="#000000" font-size="5px" font-weight="bold" font-family="'Helvetica Neue', Helvetica, Arial-Unicode, Arial, Sans-serif">from the Noun Project</text></svg>