<svg xmlns="http://www.w3.org/2000/svg" xmlns:xlink="http://www.w3.org/1999/xlink" version="1.1" x="0px" y="0px" viewBox="0 0 64 80" style="enable-background:new 0 0 64 64;" xml:space="preserve"><style type="text/css">
	.st0{display:none;}
	.st1{display:inline;}
</style><g><g><path d="M22.17,21.14c0-2.9-2.36-5.27-5.27-5.27c-2.9,0-5.27,2.36-5.27,5.27c0,2.9,2.36,5.27,5.27,5.27    C19.81,26.4,22.17,24.04,22.17,21.14z M16.91,24.4c-1.8,0-3.27-1.47-3.27-3.27c0-1.8,1.47-3.27,3.27-3.27    c1.8,0,3.27,1.47,3.27,3.27C20.17,22.94,18.71,24.4,16.91,24.4z"/><path d="M28.35,28.25h-1.59v-1.6c0-0.55-0.45-1-1-1h-3.22c-0.55,0-1,0.45-1,1v1.6h-1.6c-0.55,0-1,0.45-1,1v3.21c0,0.55,0.45,1,1,1    h1.6v1.6c0,0.55,0.45,1,1,1h3.22c0.55,0,1-0.45,1-1v-1.6h1.59c0.55,0,1-0.45,1-1v-3.21C29.35,28.69,28.9,28.25,28.35,28.25z     M27.35,31.46h-1.59c-0.55,0-1,0.45-1,1v1.6h-1.22v-1.6c0-0.55-0.45-1-1-1h-1.6v-1.21h1.6c0.55,0,1-0.45,1-1v-1.6h1.22v1.6    c0,0.55,0.45,1,1,1h1.59V31.46z"/><path d="M38.9,24.87c-2.89,0-5.24,2.35-5.24,5.24s2.35,5.24,5.24,5.24s5.24-2.35,5.24-5.24S41.79,24.87,38.9,24.87z M38.9,33.35    c-1.78,0-3.24-1.45-3.24-3.24c0-1.78,1.45-3.24,3.24-3.24s3.24,1.45,3.24,3.24C42.14,31.9,40.69,33.35,38.9,33.35z"/><path d="M31.59,15.59h4c0.55,0,1-0.45,1-1s-0.45-1-1-1h-4c-0.55,0-1,0.45-1,1S31.04,15.59,31.59,15.59z"/><path d="M28.93,15.89c0.71,0,1.29-0.58,1.29-1.29c0-0.71-0.58-1.29-1.29-1.29c-0.71,0-1.29,0.58-1.29,1.29    C27.64,15.31,28.22,15.89,28.93,15.89z"/><circle cx="44.29" cy="21.14" r="2"/><circle cx="48.14" cy="17.45" r="2"/><circle cx="51.87" cy="21.3" r="2"/><circle cx="48.14" cy="24.82" r="2"/><path d="M55.44,16.23c-0.2-0.45-0.47-0.8-0.78-1.05c-0.28-0.24-0.67-0.55-1.14-0.89c-0.24-0.92-0.78-2.02-1.97-2.74    c-1.69-1.04-6.33-2.88-9.4-2.43c-0.12,0.02-0.23,0.06-0.34,0.11l-1.49,0.81H32h-8.32l-1.49-0.81c-0.1-0.06-0.22-0.1-0.34-0.11    c-3.07-0.45-7.71,1.39-9.4,2.43c-1.19,0.72-1.72,1.82-1.97,2.74c-0.45,0.33-0.84,0.64-1.1,0.86c-0.35,0.27-0.62,0.63-0.82,1.07    c-0.52,1.16-2.48,5.94-5.98,18.59c-1.65,5.96-1.42,10.55,0.67,13.67c2.06,3.07,5.21,3.52,5.59,3.56c0.08,0.01,0.15,0.01,0.23,0.01    c1.75,0,3.02-1.94,3.96-3.38c0.19-0.29,0.36-0.55,0.5-0.73c0.34-0.44,0.68-0.9,1.02-1.36c1.37-1.85,2.79-3.76,4.5-5.15    c1.2-0.99,3.66-1.01,5.28-1.02l0.29,0c5.26-0.06,7.33,0,7.41,0c0.02,0,2.09-0.06,7.35,0l0.29,0c1.63,0.01,4.08,0.04,5.29,1.03    c1.71,1.39,3.13,3.3,4.5,5.15c0.34,0.46,0.68,0.91,1.01,1.35c0.14,0.19,0.31,0.45,0.5,0.74c0.98,1.5,2.32,3.55,4.22,3.36    c0.35-0.04,3.5-0.5,5.56-3.56c2.09-3.11,2.32-7.71,0.67-13.67C57.91,22.17,55.95,17.4,55.44,16.23z M21.39,11.09l1.54,0.85    c0.15,0.08,0.31,0.12,0.48,0.12H32h8.58c0.17,0,0.33-0.04,0.48-0.12l1.54-0.85c0.41-0.04,0.89-0.02,1.39,0.03    c-0.94,0.23-1.83,0.75-2.53,1.5l-3.15,3.44c-0.38,0.42-0.86,0.72-1.37,0.86l-0.19,0.05c-0.1,0.03-0.2,0.05-0.3,0.08h-8.91    c-0.11-0.03-0.21-0.05-0.3-0.08l-0.18-0.05c-0.52-0.14-0.99-0.44-1.38-0.86l-3.15-3.44c-0.69-0.75-1.58-1.27-2.52-1.5    C20.51,11.07,20.98,11.04,21.39,11.09z M59.09,47.37c-1.59,2.36-4.04,2.68-4.12,2.69c-0.7,0.03-1.83-1.71-2.33-2.47    c-0.22-0.33-0.41-0.63-0.58-0.85c-0.33-0.44-0.66-0.88-1-1.33c-1.44-1.95-2.93-3.96-4.84-5.51c-1.74-1.43-4.51-1.46-6.54-1.48    l-0.28,0c-5.31-0.06-7.35,0-7.37,0c-0.08,0-2.12-0.06-7.43,0l-0.28,0c-2.02,0.02-4.79,0.04-6.53,1.47    c-1.91,1.55-3.4,3.56-4.84,5.51c-0.33,0.45-0.67,0.9-1,1.34c-0.17,0.22-0.36,0.51-0.58,0.85c-0.5,0.76-1.68,2.53-2.31,2.47    c-0.1-0.01-2.55-0.33-4.14-2.69c-1.73-2.57-1.86-6.72-0.4-12.02c3.47-12.51,5.38-17.17,5.88-18.31c0.08-0.19,0.16-0.27,0.26-0.34    c0.9-0.77,4.15-3.32,7.95-3.72c0.09-0.01,0.18-0.01,0.28-0.01c0.8,0,1.6,0.36,2.19,1l3.15,3.43c0.64,0.7,1.45,1.2,2.33,1.44    c0,0,0.01,0,0.01,0l0.16,0.04c0.16,0.04,0.33,0.09,0.51,0.13c0.07,0.01,0.14,0.02,0.21,0.02h9.13c0.07,0,0.14-0.01,0.21-0.02    c0.18-0.04,0.35-0.09,0.51-0.13l0.17-0.05c0.89-0.24,1.69-0.74,2.33-1.44l3.15-3.43c0.66-0.71,1.59-1.08,2.47-0.99    c3.8,0.4,7.04,2.95,7.98,3.75c0.06,0.05,0.14,0.12,0.22,0.31c0.5,1.13,2.41,5.79,5.88,18.31C60.95,40.64,60.81,44.8,59.09,47.37z"/></g></g><text x="0" y="79" fill="#000000" font-size="5px" font-weight="bold" font-family="'Helvetica Neue', Helvetica, Arial-Unicode, Arial, Sans-serif">Created by AB Designs</text><text x="0" y="84" fill="#000000" font-size="5px" font-weight="bold" font-family="'Helvetica Neue', Helvetica, Arial-Unicode, Arial, Sans-serif">from the Noun Project</text></svg>