<svg xmlns="http://www.w3.org/2000/svg" data-name="Layer 1" viewBox="0 0 100 125" x="0px" y="0px"><g><path d="M88.85,24.18a3,3,0,0,0-1-1.4,3,3,0,0,0-1.14-.39l-.31-.06V21.08S83.06,18.87,81,18.56s-6.73-.67-7.07,0a5.53,5.53,0,0,0-.37,1.67c-1.54-.2-3.09-.38-4.63-.55a2,2,0,0,0-.71-.36,18.91,18.91,0,0,0-3.55-.54l-2.77-.13-5.82-.26H43.93l-5.81.26-2.77.13a19.11,19.11,0,0,0-3.56.54,1.88,1.88,0,0,0-.69.36c-1.55.17-3.1.35-4.65.55a5.24,5.24,0,0,0-.37-1.67c-.33-.67-5-.31-7.06,0s-5.45,2.52-5.45,2.52v1.25l-.32.06a3,3,0,0,0-1.13.39,3.13,3.13,0,0,0-1,1.4C4.82,38.42.68,54,2.12,69.52c.33,3.64,1.17,7.59,4,9.88a11.5,11.5,0,0,0,6.17,2.16,20,20,0,0,0,2.26.26,2,2,0,0,0,.91-.17c.65-.36.9-1.56,1.19-2.19.59-1.27,1.18-2.54,1.75-3.82,1.1-2.5,2.13-5,3-7.6a27.82,27.82,0,0,1,2-4.93,9.85,9.85,0,0,1,.95-1.37l.11-.13a8.63,8.63,0,0,1,3.1-2.09h0a8.82,8.82,0,0,1,2.46-.29h.33l1.07,0,1.62.24a66.62,66.62,0,0,0,8.6.12H58.27a66.67,66.67,0,0,0,8.6-.12c.54-.07,1.07-.16,1.61-.24l1.08,0h.32a8.93,8.93,0,0,1,2.47.29h0a8.55,8.55,0,0,1,3.1,2.09l.12.14a9.2,9.2,0,0,1,1,1.36,27.82,27.82,0,0,1,2,4.93c.9,2.58,1.93,5.1,3,7.6.57,1.28,1.15,2.55,1.74,3.82.29.63.54,1.83,1.2,2.19a2,2,0,0,0,.9.17,19.46,19.46,0,0,0,2.26-.26,11.47,11.47,0,0,0,6.17-2.16c2.86-2.29,3.69-6.24,4-9.88C99.32,54,95.17,38.42,88.85,24.18ZM31.56,20.64a.84.84,0,0,1,.51-.36,18.46,18.46,0,0,1,3.32-.5l2.78-.13,5.76-.26H56.06l5.78.26,2.77.13a18.25,18.25,0,0,1,3.31.5.84.84,0,0,1,.51.36,4.49,4.49,0,0,1,.24,2.58c0,.2-.24,1.66-2.24,10.72l-.11.5c-.17,1.06-1,4.51-4,4.64H37.75c-3.1-.13-3.9-3.58-4.08-4.66,0,0,0-.21-.11-.51-1.93-8.72-2.22-10.44-2.23-10.73A4.41,4.41,0,0,1,31.56,20.64Zm3,34.5a5.61,5.61,0,1,1,5.61-5.61A5.61,5.61,0,0,1,34.58,55.14ZM46,42.42a.56.56,0,1,1,.56.56A.56.56,0,0,1,46,42.42Zm1.4,2.09A.56.56,0,1,1,47.9,44,.56.56,0,0,1,47.35,44.51Zm4-.56a.56.56,0,1,1-.55-.56A.56.56,0,0,1,51.39,44Zm-.27-1.53a.56.56,0,1,1,.56.56A.56.56,0,0,1,51.12,42.42ZM50,43a.56.56,0,1,1,.56-.56A.56.56,0,0,1,50,43Zm-.27,1a.56.56,0,1,1-.56-.56A.56.56,0,0,1,49.72,44Zm-1.4-1a.56.56,0,1,1,.56-.56A.56.56,0,0,1,48.32,43ZM52,55.12c-.15,0-2,0-2,0s-1.82,0-2,0-.27-.28-.27-.52.2-.46.32-.46h3.83c.13,0,.32.23.32.46S52.12,55.09,52,55.12Zm.68-10.61a.56.56,0,1,1,.56-.56A.56.56,0,0,1,52.65,44.51ZM53.49,43a.56.56,0,1,1,.56-.56A.56.56,0,0,1,53.49,43ZM65.41,55.14A5.61,5.61,0,1,1,71,49.53,5.61,5.61,0,0,1,65.41,55.14ZM96.89,69.42c-.3,3.16-1,7-3.66,9.2a8.71,8.71,0,0,1-3.79,1.66,6.19,6.19,0,0,1-.53-.75,10.12,10.12,0,0,1-.6-1.53c-.33-.88-.71-1.78-1-2.69-.11-.42-2.2-7-2.45-7.5s-2-4.86-2.33-5.5-2.64-5.81-2.83-6.19a61.52,61.52,0,0,0-7.07-11.59c-1.68-2-4.31-4.18-4.85-6.89-.11-.55-.28-2.5-.28-2.5a11.33,11.33,0,0,1-.64,2.53,12.94,12.94,0,0,1-1.63,1.95,6.53,6.53,0,0,1-2.48,1.25c-.77,0-12.8,0-12.8,0s-12,0-12.81,0a6.48,6.48,0,0,1-2.47-1.25,12.37,12.37,0,0,1-1.64-1.95,11.92,11.92,0,0,1-.64-2.53s-.16,2-.28,2.5c-.54,2.71-3.16,4.85-4.84,6.89a61,61,0,0,0-7.07,11.59c-.2.38-2.56,5.55-2.84,6.19s-2.08,5-2.33,5.5-2.33,7.08-2.44,7.5c-.25.91-.63,1.81-1,2.69a11.3,11.3,0,0,1-.6,1.53,6.19,6.19,0,0,1-.53.75,8.65,8.65,0,0,1-3.79-1.66c-2.69-2.15-3.37-6-3.66-9.2-1.25-13.54,1.75-28.63,9-44.84a2.28,2.28,0,0,1,.61-1,2.56,2.56,0,0,1,.78-.24c5.59-1.12,11.29-2,17-2.61a7.35,7.35,0,0,0-.1,2.46c0,.31.23,1.77,2.25,10.91.07.29.11.47.11.48.53,3.26,2.45,5.36,5,5.47H62.29c2.56-.11,4.48-2.21,5-5.45,0,0,0-.2.11-.48,2-9.16,2.26-10.62,2.26-10.89a7.86,7.86,0,0,0-.1-2.5c5.69.62,11.38,1.49,17,2.61a2.41,2.41,0,0,1,.77.24,2.38,2.38,0,0,1,.62,1C95.13,40.79,98.15,55.88,96.89,69.42Z"/></g><g data-name="buttons right"><circle cx="72.91" cy="36.3" r="3.28"/><circle cx="80.02" cy="29.24" r="3.27"/><circle cx="87.08" cy="36.23" r="3.21"/><circle cx="80.03" cy="43.32" r="3.28"/></g><g data-name="Start buttons"><path d="M72.42,23.47a.86.86,0,0,0-.42.19,1.66,1.66,0,0,0-.32.55,9.1,9.1,0,0,0-.48,3c.2.74.76.71.76.71a2.3,2.3,0,0,0,.8,0,1,1,0,0,0,.51-.55,16.77,16.77,0,0,0,.41-1.84,5.77,5.77,0,0,0,.14-1.45C73.75,24,73.64,23.47,72.42,23.47Z"/><path d="M27.58,23.47a.86.86,0,0,1,.42.19,1.66,1.66,0,0,1,.32.55,9.36,9.36,0,0,1,.48,3C28.6,28,28,28,28,28a2.31,2.31,0,0,1-.8,0,1,1,0,0,1-.51-.55,16.77,16.77,0,0,1-.41-1.84,5.32,5.32,0,0,1-.14-1.45C26.25,24,26.36,23.47,27.58,23.47Z"/></g><g data-name="Directional buttons"><path d="M21.72,28.06c-.5,0-1.72,0-1.72,0s-1.22,0-1.72,0-1.22.87-1.22,1.26v3.17c0,.42,2.36,2.78,2.39,2.81a1.37,1.37,0,0,0,.27,0h.56a1.37,1.37,0,0,0,.27,0s2.39-2.39,2.39-2.81V29.32C22.94,28.93,22.22,28.05,21.72,28.06Z"/><path d="M21.72,44.48H18.28c-.5,0-1.22-.87-1.22-1.26V40.05c0-.42,2.36-2.79,2.39-2.81a1.37,1.37,0,0,1,.27,0h.56a1.37,1.37,0,0,1,.27,0s2.39,2.39,2.39,2.81v3.17C22.94,43.61,22.22,44.49,21.72,44.48Z"/><path d="M28.21,38c0-.5,0-1.72,0-1.72s0-1.22,0-1.72-.87-1.22-1.26-1.22H23.78c-.42,0-2.79,2.36-2.81,2.39A1.37,1.37,0,0,0,21,36v.56a1.37,1.37,0,0,0,0,.27s2.39,2.39,2.81,2.39H27C27.34,39.21,28.22,38.49,28.21,38Z"/><path d="M11.79,38c0-.5,0-1.72,0-1.72s0-1.22,0-1.72.87-1.22,1.26-1.22h3.17c.42,0,2.79,2.36,2.81,2.39a1.37,1.37,0,0,1,0,.27v.56a1.37,1.37,0,0,1,0,.27s-2.39,2.39-2.81,2.39H13.05C12.66,39.21,11.78,38.49,11.79,38Z"/></g><text x="0" y="115" fill="#000000" font-size="5px" font-weight="bold" font-family="'Helvetica Neue', Helvetica, Arial-Unicode, Arial, Sans-serif">Created by Eliran Bensadoun</text><text x="0" y="120" fill="#000000" font-size="5px" font-weight="bold" font-family="'Helvetica Neue', Helvetica, Arial-Unicode, Arial, Sans-serif">from the Noun Project</text></svg>