<svg xmlns="http://www.w3.org/2000/svg" viewBox="0 0 100 125" x="0px" y="0px"><g><path d="M28.23,29.49a1.56,1.56,0,0,0,1.52,1.23,1.24,1.24,0,0,0,.33,0,1.54,1.54,0,0,0,1.19-1.85L30.88,27a1.59,1.59,0,0,0-.68-1A1.55,1.55,0,0,0,29,25.82h0a1.56,1.56,0,0,0-1.19,1.85Zm1-2.69a.55.55,0,0,1,.66.42L30.3,29a.56.56,0,0,1-.08.42.59.59,0,0,1-.35.25.57.57,0,0,1-.42-.08.58.58,0,0,1-.24-.35l-.4-1.82A.56.56,0,0,1,29.24,26.8Z"/><path d="M35.93,44.29a5.54,5.54,0,1,0,5.55,5.54A5.55,5.55,0,0,0,35.93,44.29Zm0,10.08a4.54,4.54,0,1,1,4.55-4.54A4.55,4.55,0,0,1,35.93,54.37Z"/><path d="M35.93,46.46a3.37,3.37,0,1,0,3.37,3.37A3.37,3.37,0,0,0,35.93,46.46Zm0,5.73a2.37,2.37,0,1,1,2.37-2.36A2.36,2.36,0,0,1,35.93,52.19Z"/><path d="M21,34.74l1.07,1.11a1,1,0,0,0,1.41,0l1.06-1.11a1.55,1.55,0,0,0,.44-1l.1-1.42a1.61,1.61,0,0,0-1.38-1.69l-.18,0a6.19,6.19,0,0,0-1.49,0l-.19,0a1.55,1.55,0,0,0-1,.55,1.53,1.53,0,0,0-.38,1.14l.09,1.42A1.61,1.61,0,0,0,21,34.74Zm.61-2.91a.57.57,0,0,1,.37-.2l.18,0a4.3,4.3,0,0,1,.61-.05,4.07,4.07,0,0,1,.61.05l.19,0a.62.62,0,0,1,.37.2.6.6,0,0,1,.14.43L24,33.68a.58.58,0,0,1-.17.37L22.8,35.14l-1.05-1.09a.62.62,0,0,1-.16-.37l-.09-1.42A.6.6,0,0,1,21.64,31.83Z"/><path d="M24.57,41l-1.06-1.1a1,1,0,0,0-1.41,0L21,41a1.61,1.61,0,0,0-.44,1L20.5,43.4a1.55,1.55,0,0,0,.38,1.14,1.53,1.53,0,0,0,1,.54l.19,0a6.13,6.13,0,0,0,.74,0,6.3,6.3,0,0,0,.75,0l.18,0a1.56,1.56,0,0,0,1-.54,1.6,1.6,0,0,0,.38-1.14L25,42A1.56,1.56,0,0,0,24.57,41ZM24,43.89a.62.62,0,0,1-.37.2l-.19,0a5,5,0,0,1-1.22,0l-.18,0a.57.57,0,0,1-.37-.2.6.6,0,0,1-.14-.43L21.59,42a.65.65,0,0,1,.16-.37l1.05-1.09,1.05,1.09A.6.6,0,0,1,24,42l.09,1.42A.6.6,0,0,1,24,43.89Z"/><path d="M24.51,37.86a1,1,0,0,0,.31.71l1.1,1.06a1.56,1.56,0,0,0,1,.44l1.42.1h.11A1.58,1.58,0,0,0,30,38.79l0-.18a5.31,5.31,0,0,0,0-1.49l0-.19a1.58,1.58,0,0,0-.54-1,1.56,1.56,0,0,0-1.14-.37l-1.42.09a1.61,1.61,0,0,0-1,.44l-1.1,1.06A1,1,0,0,0,24.51,37.86Zm2.11-1a.62.62,0,0,1,.36-.16l1.42-.1a.61.61,0,0,1,.63.52l0,.18a5,5,0,0,1,0,1.22l0,.19a.62.62,0,0,1-.2.37.6.6,0,0,1-.43.14L27,39.07a.57.57,0,0,1-.36-.16l-1.1-1Z"/><path d="M15.58,38.79a1.59,1.59,0,0,0,.55,1,1.56,1.56,0,0,0,1,.38h.11l1.42-.1a1.55,1.55,0,0,0,1-.44l1.11-1.06a1,1,0,0,0,.3-.71,1,1,0,0,0-.3-.7l-1.11-1.07a1.61,1.61,0,0,0-1-.44l-1.42-.09a1.57,1.57,0,0,0-1.14.37,1.59,1.59,0,0,0-.55,1l0,.19a5.31,5.31,0,0,0,0,1.49Zm1-1.54,0-.18a.63.63,0,0,1,.59-.52h0l1.42.1a.62.62,0,0,1,.37.16l1.09,1-1.09,1a.57.57,0,0,1-.37.16l-1.42.1a.57.57,0,0,1-.42-.14.59.59,0,0,1-.21-.37l0-.19A4.16,4.16,0,0,1,16.55,37.25Z"/><path d="M69.92,30.68a1.24,1.24,0,0,0,.33,0,1.56,1.56,0,0,0,1.52-1.23l.39-1.82A1.56,1.56,0,0,0,71,25.82h0A1.55,1.55,0,0,0,69.8,26a1.59,1.59,0,0,0-.68,1l-.39,1.82A1.56,1.56,0,0,0,69.92,30.68ZM69.7,29l.4-1.82a.55.55,0,0,1,.54-.44l.12,0a.56.56,0,0,1,.43.66l-.4,1.82a.54.54,0,0,1-.24.35A.56.56,0,0,1,69.7,29Z"/><path d="M93.16,50.81A100.73,100.73,0,0,0,89.48,36,79.23,79.23,0,0,0,85.33,26a1.75,1.75,0,0,0-1-.9l-.76-.23V24a1,1,0,0,0-.45-.84,16,16,0,0,0-5.15-2.22,18.51,18.51,0,0,0-6,0,1,1,0,0,0-.84.88l-.11.95a2,2,0,0,0-1.14.12h0l-.14.11A58.85,58.85,0,0,0,63.55,22l-.34,0h0c-6.38-.66-13.1-.72-13.25-.72s-6.79.06-13.17.72h0l-.32,0a58.86,58.86,0,0,0-6.14.93l-.14-.11a2,2,0,0,0-1.14-.12l-.11-.95a1,1,0,0,0-.84-.88,18.52,18.52,0,0,0-6,0,16,16,0,0,0-5.15,2.22,1,1,0,0,0-.45.84v.94l-.76.23a1.75,1.75,0,0,0-1,.9A78.61,78.61,0,0,0,10.52,36,100.73,100.73,0,0,0,6.84,50.81C5.48,58.56,5.39,65.2,6.57,71.12c.68,3.37,2.21,5.81,4.43,7.06a4.22,4.22,0,0,0,1.61.53h0l4,.6.38,0A2.69,2.69,0,0,0,19.28,78a67.2,67.2,0,0,0,4.3-9.2c.66-1.59,1.33-3.24,2.08-4.88a9.3,9.3,0,0,1,2.43-3.68,7.53,7.53,0,0,1,4.75-1.37,9.11,9.11,0,0,0,3.1.56H64.06a9.11,9.11,0,0,0,3.1-.56,7.53,7.53,0,0,1,4.75,1.37A9.38,9.38,0,0,1,74.36,64c.73,1.59,1.4,3.24,2.06,4.83a68.41,68.41,0,0,0,4.3,9.2A2.69,2.69,0,0,0,83,79.35l.38,0,4-.6h0A4.22,4.22,0,0,0,89,78.18c2.22-1.25,3.75-3.69,4.43-7.06C94.61,65.2,94.52,58.56,93.16,50.81ZM77.72,21.88A15,15,0,0,1,82.53,24v.67a83.31,83.31,0,0,0-10.59-1.79l.11-.94A17.43,17.43,0,0,1,77.72,21.88ZM50,22.29c.09,0,6.82.06,13.16.72a3.13,3.13,0,0,1,2.23.81,2,2,0,0,1,.16,1.63l-.27,1.33c-.18.92-.37,1.85-.56,2.78l-.51,2.32c-.25,1.16-.51,2.33-.75,3.49-.36,1.8-.7,3.49-2.32,4.3a5.92,5.92,0,0,1-2.77.47H41.6a5.92,5.92,0,0,1-2.77-.47c-1.62-.81-2-2.5-2.32-4.3-.24-1.16-.5-2.33-.75-3.49l-.51-2.32c-.2-.94-.38-1.88-.57-2.82l-.26-1.29a2,2,0,0,1,.16-1.63A3.12,3.12,0,0,1,36.8,23C43.15,22.35,49.89,22.29,50,22.29ZM17.47,24a15,15,0,0,1,4.81-2.08,16.83,16.83,0,0,1,5.67,0l.11.93a84.86,84.86,0,0,0-10.59,1.79Zm-9.92,47C6.39,65.13,6.48,58.61,7.83,51a101.78,101.78,0,0,1,3.63-14.69,80.26,80.26,0,0,1,4.11-9.81.74.74,0,0,1,.45-.4,66.81,66.81,0,0,1,12.52-2.29,8.13,8.13,0,0,1,.92-.06h.25a4.16,4.16,0,0,1,1.65,2.61c.24.88.43,1.8.61,2.69l.19.9c.34,1.62.67,3.24,1,4.88,0,0,.91,4-.48,5.7-.55.69-1.13,1.37-1.7,2l-.7.84,0,0h0c-.68.81-1.36,1.64-2,2.5l-.37.53h0a.91.91,0,0,0-.11.16h0v0C24,52,21.16,58.18,18.7,64.14c-1.52,3.7-2.73,7.57-3.9,11.32l-.1.33c-.34,1.1-.84,1.74-1.49,1.9a2.38,2.38,0,0,1-1.72-.39C9,75.92,8,73.07,7.55,70.92ZM27.47,59.46a10.06,10.06,0,0,0-2.74,4.1c-.74,1.6-1.42,3.26-2.07,4.86a67.88,67.88,0,0,1-4.24,9.07,1.67,1.67,0,0,1-1.68.84L14.58,78a4.59,4.59,0,0,0,1.08-1.93l.1-.33c1.16-3.72,2.36-7.57,3.86-11.22A97.86,97.86,0,0,1,27,49.61c0,.27,0,.54,0,.81A9,9,0,0,0,31.07,58,7.77,7.77,0,0,0,27.47,59.46Zm.46-9a7.91,7.91,0,0,1,.71-3.29l.41-.58c.61-.82,1.27-1.62,1.93-2.41a7.87,7.87,0,0,1,5-1.72,8,8,0,1,1-8,8Zm12.11,8a9,9,0,0,0-4.1-17,9.14,9.14,0,0,0-3.18.57c.23-.28.47-.56.7-.85,1.7-2.11.72-6.37.68-6.54-.33-1.62-.66-3.24-1-4.86l-.19-.9c-.18-.9-.37-1.84-.62-2.75a6.07,6.07,0,0,0-1.11-2.28c.78-.16,1.6-.29,2.46-.42a3.11,3.11,0,0,0-.24,2.26l.26,1.29c.19.94.37,1.89.58,2.83.16.78.33,1.55.5,2.32.25,1.16.51,2.32.75,3.48.37,1.86.8,4,2.85,5a6.83,6.83,0,0,0,3.22.58H58.4a6.83,6.83,0,0,0,3.22-.58c2.05-1,2.48-3.13,2.85-5,.24-1.16.5-2.32.75-3.48.17-.77.34-1.54.5-2.32s.39-1.87.57-2.8l.27-1.32a3.1,3.1,0,0,0-.24-2.26c.86.13,1.68.26,2.46.42a6.07,6.07,0,0,0-1.11,2.28c-.25.92-.44,1.85-.62,2.76l-.18.89c-.35,1.62-.68,3.24-1,4.85-.05.18-1,4.44.67,6.55.23.29.47.57.7.85a9.14,9.14,0,0,0-3.18-.57,9,9,0,0,0-4.1,17Zm16-8a8,8,0,0,1,8-8,7.87,7.87,0,0,1,5,1.72c.66.79,1.32,1.59,1.93,2.41l.41.58a7.91,7.91,0,0,1,.71,3.29,8,8,0,1,1-16,0Zm27.2,27.91a1.66,1.66,0,0,1-1.68-.84,67.88,67.88,0,0,1-4.24-9.07c-.65-1.6-1.33-3.26-2.09-4.92a10,10,0,0,0-2.72-4A7.77,7.77,0,0,0,68.93,58a9,9,0,0,0,4.14-7.57c0-.27,0-.54,0-.81a97.86,97.86,0,0,1,7.35,14.92c1.5,3.65,2.7,7.5,3.86,11.22l.1.33A4.59,4.59,0,0,0,85.42,78Zm9.19-7.41c-.43,2.15-1.46,5-3.94,6.38a2.49,2.49,0,0,1-1.72.39c-.65-.16-1.15-.8-1.49-1.9l-.1-.33c-1.17-3.75-2.38-7.62-3.9-11.32C78.84,58.18,76,52,72.24,46.65v0h0l-.09-.14v0h0L71.75,46c-.64-.86-1.32-1.69-2-2.5h0l0,0-.7-.84c-.57-.68-1.15-1.36-1.7-2-1.39-1.74-.49-5.66-.48-5.72.33-1.62.66-3.24,1-4.86l.19-.89c.18-.89.37-1.81.61-2.7a4.16,4.16,0,0,1,1.65-2.61,5.83,5.83,0,0,1,1.18.05A65.89,65.89,0,0,1,84,26.08a.79.79,0,0,1,.46.4,81.73,81.73,0,0,1,4.1,9.81A101.78,101.78,0,0,1,92.17,51C93.52,58.61,93.61,65.13,92.45,70.92Z"/><path d="M64.07,44.29a5.54,5.54,0,1,0,5.54,5.54A5.55,5.55,0,0,0,64.07,44.29Zm0,10.08a4.54,4.54,0,1,1,4.54-4.54A4.55,4.55,0,0,1,64.07,54.37Z"/><path d="M64.07,46.46a3.37,3.37,0,1,0,3.36,3.37A3.37,3.37,0,0,0,64.07,46.46Zm0,5.73a2.37,2.37,0,1,1,2.36-2.36A2.37,2.37,0,0,1,64.07,52.19Z"/><circle cx="46.85" cy="45.1" r="0.55"/><circle cx="48.96" cy="45.1" r="0.55"/><circle cx="45.8" cy="43.38" r="0.55"/><circle cx="47.91" cy="43.38" r="0.55"/><circle cx="53.19" cy="45.1" r="0.55"/><circle cx="51.07" cy="45.1" r="0.55"/><circle cx="54.24" cy="43.38" r="0.55"/><circle cx="52.13" cy="43.38" r="0.55"/><circle cx="50.02" cy="43.38" r="0.55"/><path d="M51.63,54H48.41a.5.5,0,0,0-.5.5.5.5,0,0,0,.5.5h3.22a.5.5,0,0,0,.5-.5A.5.5,0,0,0,51.63,54Z"/><path d="M77.21,35.31a2.93,2.93,0,1,0-2.93-2.93A2.93,2.93,0,0,0,77.21,35.31Zm0-4.86a1.93,1.93,0,1,1-1.93,1.93A1.93,1.93,0,0,1,77.21,30.45Z"/><path d="M77.21,40.41a2.93,2.93,0,1,0,2.93,2.93A2.93,2.93,0,0,0,77.21,40.41Zm0,4.86a1.93,1.93,0,1,1,1.93-1.93A1.94,1.94,0,0,1,77.21,45.27Z"/><path d="M82.69,34.93a2.93,2.93,0,1,0,2.93,2.93A2.94,2.94,0,0,0,82.69,34.93Zm0,4.86a1.93,1.93,0,1,1,1.93-1.93A1.93,1.93,0,0,1,82.69,39.79Z"/><path d="M71.73,34.93a2.93,2.93,0,1,0,2.93,2.93A2.94,2.94,0,0,0,71.73,34.93Zm0,4.86a1.93,1.93,0,1,1,1.93-1.93A1.93,1.93,0,0,1,71.73,39.79Z"/></g><text x="0" y="115" fill="#000000" font-size="5px" font-weight="bold" font-family="'Helvetica Neue', Helvetica, Arial-Unicode, Arial, Sans-serif">Created by Simone Sciacovelli</text><text x="0" y="120" fill="#000000" font-size="5px" font-weight="bold" font-family="'Helvetica Neue', Helvetica, Arial-Unicode, Arial, Sans-serif">from the Noun Project</text></svg>