<svg xmlns="http://www.w3.org/2000/svg" xmlns:xlink="http://www.w3.org/1999/xlink" version="1.1" x="0px" y="0px" viewBox="0 0 100 125" enable-background="new 0 0 100 100" xml:space="preserve"><g display="none"><rect x="0" y="0.015" display="inline" fill="#000000" width="100" height="100"/></g><g><g><path d="M37.723,20.764c-0.388-0.094-0.764-0.241-1.113-0.442l-2.936-1.689c0,0-5.216-0.802-13.901,3.802    c-0.561,0.298-1.008,0.774-1.26,1.357c-0.609,1.406-1.132,2.451-1.132,2.451l0.023,0.076c5.397-2.964,10.494-3.969,13.09-4.305    c1.089-0.141,2.337,0.27,3.069,1.089l1.723,1.928L37.723,20.764z"/><path d="M61.353,20.863c-0.132,0.013-0.266,0.021-0.399,0.021H50.075h-0.161H38.713c-0.131,0-0.261-0.008-0.39-0.02l-2.637,4.616    l4.456,4.988c0.676,0.757,1.643,1.189,2.657,1.189h6.874h0.161h7.034c1.015,0,1.981-0.433,2.657-1.189l4.464-4.996L61.353,20.863z     M49.833,30.344c-2.264,0-4.1-1.836-4.1-4.1s1.836-4.1,4.1-4.1c2.264,0,4.1,1.836,4.1,4.1S52.098,30.344,49.833,30.344z"/><path d="M82.286,26.244c0,0-0.523-1.046-1.132-2.451c-0.253-0.583-0.699-1.06-1.26-1.357c-8.685-4.605-13.901-3.802-13.901-3.802    l-2.936,1.689c-0.342,0.197-0.709,0.342-1.089,0.436l2.433,4.253l1.705-1.908c0.731-0.819,1.98-1.23,3.069-1.089    c2.61,0.338,7.748,1.351,13.177,4.352L82.286,26.244z"/></g><circle cx="26.545" cy="37.687" r="4.824"/><circle cx="61.654" cy="51.705" r="4.824"/><path d="M68.519,36.073c0.492,0.433,0.802,1.068,0.802,1.774c0,1.305-1.058,2.364-2.364,2.364c-1.305,0-2.364-1.058-2.364-2.364   s1.058-2.364,2.364-2.364C67.556,35.484,68.103,35.706,68.519,36.073"/><path d="M81.13,36.073c0.492,0.433,0.802,1.068,0.802,1.774c0,1.305-1.058,2.364-2.364,2.364c-1.305,0-2.364-1.058-2.364-2.364   s1.058-2.364,2.364-2.364C80.167,35.484,80.714,35.706,81.13,36.073"/><path d="M74.913,30.017c0.492,0.433,0.802,1.068,0.802,1.774c0,1.305-1.058,2.364-2.364,2.364s-2.364-1.058-2.364-2.364   s1.058-2.364,2.364-2.364C73.95,29.427,74.496,29.65,74.913,30.017"/><path d="M74.913,42.29c0.492,0.433,0.802,1.068,0.802,1.774c0,1.305-1.058,2.364-2.364,2.364s-2.364-1.058-2.364-2.364   c0-1.305,1.058-2.364,2.364-2.364C73.95,41.701,74.496,41.924,74.913,42.29"/><path d="M93.837,55.695c-0.563-2.653-7.236-24.28-10.13-27.737c-5.915-3.618-11.707-4.775-14.533-5.14   c-1.089-0.141-2.176,0.27-2.908,1.089l-6.58,7.364c-0.676,0.757-1.643,1.189-2.657,1.189h-7.195h-0.161h-7.034   c-1.015,0-1.981-0.433-2.657-1.189l-6.58-7.364c-0.732-0.819-1.819-1.23-2.908-1.089c-2.827,0.366-8.619,1.522-14.533,5.14   c-2.894,3.457-9.567,25.084-10.13,27.737s-6.19,22.27,7.718,24.923c8.281-5.708,11.657-12.22,17.928-15.275   c3.845-0.7,8.334-0.482,18.357-0.482h0.161c10.023,0,14.352-0.217,18.196,0.482c6.271,3.055,9.648,9.567,17.928,15.275   C100.027,77.965,94.399,58.349,93.837,55.695z M26.545,44.52c-3.774,0-6.834-3.06-6.834-6.834c0-3.774,3.06-6.834,6.834-6.834   s6.834,3.06,6.834,6.834C33.379,41.461,30.319,44.52,26.545,44.52z M44.581,54.02c0,0.422-0.342,0.765-0.765,0.765h-3.217   c-0.213,0-0.386,0.173-0.386,0.386v3.217c0,0.422-0.342,0.765-0.765,0.765h-2.919c-0.422,0-0.765-0.342-0.765-0.765V55.17   c0-0.213-0.173-0.386-0.386-0.386h-3.217c-0.422,0-0.765-0.342-0.765-0.765V51.1c0-0.422,0.342-0.765,0.765-0.765h3.217   c0.213,0,0.386-0.173,0.386-0.386v-3.217c0-0.422,0.342-0.765,0.765-0.765h2.919c0.422,0,0.765,0.342,0.765,0.765v3.217   c0,0.213,0.173,0.386,0.386,0.386h3.217c0.422,0,0.765,0.342,0.765,0.765V54.02z M43.346,39.857c-1.11,0-2.01-0.9-2.01-2.01   c0-1.11,0.9-2.01,2.01-2.01c1.11,0,2.01,0.9,2.01,2.01C45.355,38.958,44.456,39.857,43.346,39.857z M73.351,28.682   c1.717,0,3.109,1.392,3.109,3.109c0,1.717-1.392,3.109-3.109,3.109c-1.717,0-3.109-1.392-3.109-3.109   C70.243,30.074,71.635,28.682,73.351,28.682z M56.613,35.838c1.11,0,2.01,0.9,2.01,2.01c0,1.11-0.9,2.01-2.01,2.01   c-1.11,0-2.01-0.9-2.01-2.01C54.604,36.738,55.503,35.838,56.613,35.838z M61.654,58.538c-3.774,0-6.834-3.06-6.834-6.834   c0-3.774,3.06-6.834,6.834-6.834s6.834,3.06,6.834,6.834C68.488,55.479,65.429,58.538,61.654,58.538z M66.958,40.956   c-1.717,0-3.109-1.392-3.109-3.109s1.392-3.109,3.109-3.109s3.109,1.392,3.109,3.109S68.675,40.956,66.958,40.956z M73.351,47.174   c-1.717,0-3.109-1.392-3.109-3.109c0-1.717,1.392-3.109,3.109-3.109c1.717,0,3.109,1.392,3.109,3.109   C76.46,45.782,75.068,47.174,73.351,47.174z M79.569,40.956c-1.717,0-3.109-1.392-3.109-3.109s1.392-3.109,3.109-3.109   s3.109,1.392,3.109,3.109S81.286,40.956,79.569,40.956z"/></g><text x="0" y="115" fill="#000000" font-size="5px" font-weight="bold" font-family="'Helvetica Neue', Helvetica, Arial-Unicode, Arial, Sans-serif">Created by David Swanson</text><text x="0" y="120" fill="#000000" font-size="5px" font-weight="bold" font-family="'Helvetica Neue', Helvetica, Arial-Unicode, Arial, Sans-serif">from the Noun Project</text></svg>