<svg width="500" height="500" viewBox="0 0 500 500" fill="none" xmlns="http://www.w3.org/2000/svg">
<mask id="mask0_7_4" style="mask-type:luminance" maskUnits="userSpaceOnUse" x="0" y="0" width="500" height="500">
<path d="M500 0H0V500H500V0Z" fill="white"/>
</mask>
<g mask="url(#mask0_7_4)">
<path d="M192.17 140.36C192 137.08 189.29 134.46 185.97 134.46H143.36V106.5V65.8C143.36 65.66 143.36 65.53 143.34 65.39C143.46 62.91 142.07 60.49 139.68 59.42C137.05 58.25 134.32 57.18 131.6 56.27C122.57 53.24 113.14 51.71 103.55 51.71C91.59 51.71 79.97 54.06 69.04 58.7C58.48 63.17 49.01 69.6 40.87 77.77C32.73 85.93 26.35 95.46 21.87 106.04C17.24 117.01 14.9 128.66 14.9 140.67C14.9 152.68 17.24 164.33 21.87 175.3C26.33 185.9 32.73 195.41 40.87 203.57C49.01 211.73 58.5 218.15 69.04 222.64C79.97 227.28 91.58 229.63 103.55 229.63C115.52 229.63 127.13 227.28 138.06 222.64C148.62 218.17 158.09 211.74 166.23 203.57C174.37 195.41 180.75 185.88 185.23 175.3C189.86 164.33 192.2 152.68 192.2 140.67C192.19 140.58 192.19 140.46 192.17 140.36ZM157.44 194.79C150.44 201.82 142.29 207.34 133.2 211.19C123.81 215.17 113.83 217.19 103.52 217.19C93.23 217.19 83.25 215.17 73.84 211.19C64.76 207.33 56.6 201.82 49.6 194.79C42.6 187.77 37.09 179.58 33.26 170.47C29.29 161.05 27.28 151.03 27.28 140.69C27.28 130.35 29.3 120.35 33.26 110.91C37.11 101.79 42.6 93.61 49.6 86.59C56.6 79.57 64.75 74.04 73.84 70.19C83.23 66.21 93.21 64.18 103.52 64.18C111.77 64.18 119.89 65.49 127.64 68.09C128.74 68.47 129.83 68.86 130.91 69.28V106.5V134.46H103C99.58 134.46 96.8 137.25 96.8 140.69C96.8 144.13 99.58 146.92 103 146.92H130.64C129.34 152.69 126.2 157.93 121.71 161.84C116.66 166.23 110.19 168.66 103.49 168.66C88.13 168.66 75.63 156.12 75.63 140.7C75.63 125.27 88.12 112.74 103.49 112.74C106.91 112.74 109.69 109.95 109.69 106.51C109.69 103.07 106.91 100.28 103.49 100.28C92.73 100.28 82.63 104.48 75.02 112.12C67.41 119.76 63.21 129.89 63.21 140.69C63.21 151.49 67.4 161.63 75 169.27C82.61 176.91 92.71 181.11 103.47 181.11C113.15 181.11 122.5 177.61 129.83 171.26C137.05 164.99 141.81 156.34 143.27 146.94H179.52C178.87 155.07 176.94 162.96 173.77 170.5C169.95 179.56 164.46 187.74 157.44 194.79Z" fill="#00AB9A"/>
</g>
<mask id="mask1_7_4" style="mask-type:luminance" maskUnits="userSpaceOnUse" x="0" y="0" width="500" height="500">
<path d="M500 0H0V500H500V0Z" fill="white"/>
</mask>
<g mask="url(#mask1_7_4)">
<path d="M76.95 391.36C76.95 411.32 60.76 427.55 40.89 427.55H21.57V355.06H40.89C60.76 355.08 76.95 371.32 76.95 391.36ZM64.82 391.36C64.82 378.07 54.03 367.22 40.87 367.22H33.68V415.39H40.87C54.03 415.39 64.82 404.57 64.82 391.36Z" fill="#0A0A0A"/>
</g>
<mask id="mask2_7_4" style="mask-type:luminance" maskUnits="userSpaceOnUse" x="0" y="0" width="500" height="500">
<path d="M500 0H0V500H500V0Z" fill="white"/>
</mask>
<g mask="url(#mask2_7_4)">
<path d="M325.67 400.59C325.67 415.88 313.27 428.33 298.03 428.33C282.8 428.33 270.39 415.88 270.39 400.59C270.39 385.3 282.79 372.85 298.03 372.85C313.27 372.85 325.67 385.28 325.67 400.59ZM313.75 400.59C313.75 391.84 306.64 384.82 298.04 384.82C289.32 384.82 282.24 391.84 282.24 400.59C282.24 409.33 289.35 416.36 298.04 416.36C306.64 416.36 313.75 409.31 313.75 400.59Z" fill="#0A0A0A"/>
</g>
<mask id="mask3_7_4" style="mask-type:luminance" maskUnits="userSpaceOnUse" x="0" y="0" width="500" height="500">
<path d="M500 0H0V500H500V0Z" fill="white"/>
</mask>
<g mask="url(#mask3_7_4)">
<path d="M56.2 292.29H56C52.6 292.29 49.84 295.06 49.84 298.47C49.84 301.86 52.55 304.6 55.91 304.65H69.57V315.82C65.32 319.71 59.26 321.9 53.48 321.9C40.24 321.9 28.97 310.88 28.97 297.3C28.97 284.96 38.9 272.7 53.48 272.7C56.41 272.75 59.6 273.37 62.61 274.54C63.09 274.81 63.6 275.02 64.17 275.18C67.62 276.09 71.12 274.13 72.01 270.79C72.89 267.45 70.81 263.99 67.38 263.08V263.06C63 261.25 58.34 260.36 53.5 260.36C33.43 260.36 16.58 277.08 16.58 297.31C16.58 316.22 32 334.36 53.5 334.36C65.15 334.36 74.14 329.33 81.89 320.78V292.3H56.2V292.29Z" fill="#0A0A0A"/>
</g>
<mask id="mask4_7_4" style="mask-type:luminance" maskUnits="userSpaceOnUse" x="0" y="0" width="500" height="500">
<path d="M500 0H0V500H500V0Z" fill="white"/>
</mask>
<g mask="url(#mask4_7_4)">
<path d="M145.48 284.15V283.98V283.84C145.31 280.69 142.7 278.17 139.53 278.17C136.34 278.17 133.73 280.68 133.58 283.84C133.58 283.94 133.56 284.05 133.56 284.17C133.56 284.29 133.56 284.38 133.58 284.5V283.85C129.03 280.72 123.54 278.91 117.87 278.91C102.72 278.91 90.32 291.36 90.32 306.65C90.32 321.94 102.72 334.39 117.87 334.39C123.55 334.39 129.04 332.58 133.58 329.45V333.72H145.5V284.34C145.48 284.27 145.48 284.2 145.48 284.15ZM133.35 307.08C132.87 315.35 126.16 321.8 117.82 321.8C109.29 321.8 102.29 314.86 102.29 306.22C102.29 297.66 109.29 290.64 117.82 290.64C126.16 290.64 132.86 297.1 133.35 305.36V307.08Z" fill="#0A0A0A"/>
</g>
<mask id="mask5_7_4" style="mask-type:luminance" maskUnits="userSpaceOnUse" x="0" y="0" width="500" height="500">
<path d="M500 0H0V500H500V0Z" fill="white"/>
</mask>
<g mask="url(#mask5_7_4)">
<path d="M208.57 278.96C203.17 278.96 198.07 281.04 194.18 284.66C190.11 281.04 184.81 278.86 178.95 278.86C175.11 278.86 170.82 279.98 167.7 281.84C167.01 279.7 165.02 278.14 162.66 278.14C159.78 278.14 157.45 280.45 157.38 283.32V333.58H169.12V299.96C169.12 294.74 173.29 291.02 178.49 290.75C183.5 290.85 187.58 294.93 187.58 299.96V333.58H199.31V299.96C199.31 294.93 203.56 290.75 208.59 290.75C213.7 290.75 217.77 294.93 217.77 299.96V333.58H229.51V299.96C229.48 288.36 220.12 278.96 208.57 278.96Z" fill="#0A0A0A"/>
</g>
<mask id="mask6_7_4" style="mask-type:luminance" maskUnits="userSpaceOnUse" x="0" y="0" width="500" height="500">
<path d="M500 0H0V500H500V0Z" fill="white"/>
</mask>
<g mask="url(#mask6_7_4)">
<path d="M173.09 373.61L161.36 409.85L149.62 373.61H137.97L155.68 424.13C155.8 424.51 155.95 424.89 156.14 425.23C157.15 427.09 159.11 428.35 161.36 428.35C163.61 428.35 165.56 427.09 166.57 425.23C166.76 424.89 166.91 424.52 167.03 424.13L184.74 373.61H173.09Z" fill="#0A0A0A"/>
</g>
<mask id="mask7_7_4" style="mask-type:luminance" maskUnits="userSpaceOnUse" x="0" y="0" width="500" height="500">
<path d="M500 0H0V500H500V0Z" fill="white"/>
</mask>
<g mask="url(#mask7_7_4)">
<path d="M255.29 354.31C251.86 354.31 249.1 357.1 249.1 360.53V427.56H261.5V360.55C261.48 357.1 258.7 354.31 255.29 354.31Z" fill="#0A0A0A"/>
</g>
<mask id="mask8_7_4" style="mask-type:luminance" maskUnits="userSpaceOnUse" x="0" y="0" width="500" height="500">
<path d="M500 0H0V500H500V0Z" fill="white"/>
</mask>
<g mask="url(#mask8_7_4)">
<path d="M360.55 372.83C354.87 372.83 349.38 374.53 344.84 377.77H344.83C344.6 374.65 342.03 372.21 338.87 372.21C335.72 372.21 333.14 374.67 332.92 377.77H332.91V448.28H344.83V423.38C349.38 426.62 354.86 428.32 360.54 428.32C375.77 428.32 388.18 415.87 388.18 400.58C388.19 385.28 375.79 372.83 360.55 372.83ZM360.55 416.36C352.13 416.36 345.21 409.8 344.84 401.45V399.75C344.84 391.38 352.13 384.84 360.55 384.84C369.16 384.84 376.26 391.86 376.26 400.61C376.27 409.32 369.17 416.36 360.55 416.36Z" fill="#0A0A0A"/>
</g>
<mask id="mask9_7_4" style="mask-type:luminance" maskUnits="userSpaceOnUse" x="0" y="0" width="500" height="500">
<path d="M500 0H0V500H500V0Z" fill="white"/>
</mask>
<g mask="url(#mask9_7_4)">
<path d="M479.21 372.83H478.93C474.95 372.83 471.07 373.88 467.66 375.88L467.14 376.22C466.4 373.89 464.23 372.21 461.67 372.21C458.5 372.21 455.92 374.79 455.92 377.98V427.57H467.65V396.11C467.65 389.91 472.64 384.83 478.7 384.63C478.87 384.65 479.03 384.65 479.2 384.65C482.44 384.65 485.08 382 485.08 378.74C485.09 375.48 482.46 372.83 479.21 372.83Z" fill="#0A0A0A"/>
</g>
<mask id="mask10_7_4" style="mask-type:luminance" maskUnits="userSpaceOnUse" x="0" y="0" width="500" height="500">
<path d="M500 0H0V500H500V0Z" fill="white"/>
</mask>
<g mask="url(#mask10_7_4)">
<path d="M292.91 304.32C291.78 290.17 279.56 278.86 265.36 278.86C250.31 278.86 237.81 291.58 237.81 306.6C237.81 321.89 250.11 334.34 265.36 334.34H268.89C272.18 334.34 274.86 331.65 274.86 328.35C274.86 325.04 272.18 322.36 268.89 322.36H265.36C259.68 322.36 254.47 319.31 251.72 314.39H291.95L292.24 313.06C292.62 311.17 293 309.26 293 307.26C293.02 306.42 293.02 305.46 292.91 304.32ZM250.13 302.81C251.74 296.44 257.51 290.84 265.36 290.84C272.74 290.84 279 295.87 280.7 302.81H250.13Z" fill="#0A0A0A"/>
</g>
<mask id="mask11_7_4" style="mask-type:luminance" maskUnits="userSpaceOnUse" x="0" y="0" width="500" height="500">
<path d="M500 0H0V500H500V0Z" fill="white"/>
</mask>
<g mask="url(#mask11_7_4)">
<path d="M137.44 398.3C136.31 384.15 124.09 372.84 109.89 372.84C94.84 372.84 82.34 385.56 82.34 400.58C82.34 415.87 94.64 428.32 109.89 428.32H113.42C116.71 428.32 119.39 425.63 119.39 422.33C119.39 419.02 116.71 416.34 113.42 416.34H109.89C104.21 416.34 98.99 413.29 96.25 408.37H136.48L136.77 407.04C137.15 405.15 137.53 403.23 137.53 401.24C137.55 400.4 137.55 399.43 137.44 398.3ZM94.66 396.78C96.27 390.41 102.04 384.81 109.9 384.81C117.28 384.81 123.54 389.84 125.24 396.78H94.66Z" fill="#0A0A0A"/>
</g>
<mask id="mask12_7_4" style="mask-type:luminance" maskUnits="userSpaceOnUse" x="0" y="0" width="500" height="500">
<path d="M500 0H0V500H500V0Z" fill="white"/>
</mask>
<g mask="url(#mask12_7_4)">
<path d="M240.27 398.3C239.14 384.15 226.92 372.84 212.71 372.84C197.66 372.84 185.16 385.56 185.16 400.58C185.16 415.87 197.46 428.32 212.71 428.32H216.24C219.53 428.32 222.21 425.63 222.21 422.33C222.21 419.02 219.53 416.34 216.24 416.34H212.71C207.03 416.34 201.82 413.29 199.07 408.37H239.3L239.58 407.04C239.96 405.15 240.34 403.23 240.34 401.24C240.36 400.4 240.36 399.43 240.27 398.3ZM197.48 396.78C199.09 390.41 204.86 384.81 212.71 384.81C220.09 384.81 226.35 389.84 228.05 396.78H197.48Z" fill="#0A0A0A"/>
</g>
<mask id="mask13_7_4" style="mask-type:luminance" maskUnits="userSpaceOnUse" x="0" y="0" width="500" height="500">
<path d="M500 0H0V500H500V0Z" fill="white"/>
</mask>
<g mask="url(#mask13_7_4)">
<path d="M448.97 398.3C447.84 384.15 435.62 372.84 421.41 372.84C406.37 372.84 393.86 385.56 393.86 400.58C393.86 415.87 406.16 428.32 421.41 428.32H424.95C428.24 428.32 430.92 425.63 430.92 422.33C430.92 419.02 428.24 416.34 424.95 416.34H421.41C415.74 416.34 410.52 413.29 407.78 408.37H448.01L448.3 407.04C448.68 405.15 449.06 403.23 449.06 401.24C449.08 400.4 449.08 399.43 448.97 398.3ZM406.19 396.78C407.8 390.41 413.57 384.81 421.42 384.81C428.8 384.81 435.06 389.84 436.76 396.78H406.19Z" fill="#0A0A0A"/>
</g>
</svg>
