<?xml version="1.0" encoding="utf-8"?>
<!-- Generator: Adobe Illustrator 26.5.0, SVG Export Plug-In . SVG Version: 6.00 Build 0)  -->
<svg version="1.0" id="katman_1" xmlns="http://www.w3.org/2000/svg" xmlns:xlink="http://www.w3.org/1999/xlink" x="0px" y="0px"
	 viewBox="0 0 718 538" style="enable-background:new 0 0 718 538;" xml:space="preserve">
<style type="text/css">
	.st0{clip-path:url(#SVGID_00000176748287529260432780000002360143817972550021_);fill:#E70013;}
	.st1{clip-path:url(#SVGID_00000176748287529260432780000002360143817972550021_);fill:#0A0A0A;}
</style>
<g>
	<defs>
		<rect id="SVGID_1_" x="109" y="19" width="500" height="500"/>
	</defs>
	<clipPath id="SVGID_00000139266563492732103580000011240779624319439516_">
		<use xlink:href="#SVGID_1_"  style="overflow:visible;"/>
	</clipPath>
	<path style="clip-path:url(#SVGID_00000139266563492732103580000011240779624319439516_);fill:#E70013;" d="M301.17,159.36
		c-0.17-3.28-2.88-5.9-6.2-5.9h-42.61v-27.96V84.8c0-0.14,0-0.27-0.02-0.41c0.12-2.48-1.27-4.9-3.66-5.97
		c-2.63-1.17-5.36-2.24-8.08-3.15c-9.03-3.03-18.46-4.56-28.05-4.56c-11.96,0-23.58,2.35-34.51,6.99
		c-10.56,4.47-20.03,10.9-28.17,19.07c-8.14,8.16-14.52,17.69-19,28.27c-4.63,10.97-6.97,22.62-6.97,34.63
		c0,12.01,2.34,23.66,6.97,34.63c4.46,10.6,10.86,20.11,19,28.27c8.14,8.16,17.63,14.58,28.17,19.07
		c10.93,4.64,22.54,6.99,34.51,6.99c11.97,0,23.58-2.35,34.51-6.99c10.56-4.47,20.03-10.9,28.17-19.07
		c8.14-8.16,14.52-17.69,19-28.27c4.63-10.97,6.97-22.62,6.97-34.63C301.19,159.58,301.19,159.46,301.17,159.36 M266.44,213.79
		c-7,7.03-15.15,12.55-24.24,16.4c-9.39,3.98-19.37,6-29.68,6c-10.29,0-20.27-2.02-29.68-6c-9.08-3.86-17.24-9.37-24.24-16.4
		c-7-7.02-12.51-15.21-16.34-24.32c-3.97-9.42-5.98-19.44-5.98-29.78c0-10.34,2.02-20.34,5.98-29.78
		c3.85-9.12,9.34-17.3,16.34-24.32s15.15-12.55,24.24-16.4c9.39-3.98,19.37-6.01,29.68-6.01c8.25,0,16.37,1.31,24.12,3.91
		c1.1,0.38,2.19,0.77,3.27,1.19v37.22v27.96h-27.91c-3.42,0-6.2,2.79-6.2,6.23s2.78,6.23,6.2,6.23h27.64
		c-1.3,5.77-4.44,11.01-8.93,14.92c-5.05,4.39-11.52,6.82-18.22,6.82c-15.36,0-27.86-12.54-27.86-27.96
		c0-15.43,12.49-27.96,27.86-27.96c3.42,0,6.2-2.79,6.2-6.23c0-3.44-2.78-6.23-6.2-6.23c-10.76,0-20.86,4.2-28.47,11.84
		c-7.61,7.64-11.81,17.77-11.81,28.57s4.19,20.94,11.79,28.58c7.61,7.64,17.71,11.84,28.47,11.84c9.68,0,19.03-3.5,26.36-9.85
		c7.22-6.27,11.98-14.92,13.44-24.32h36.25c-0.65,8.13-2.58,16.02-5.75,23.56C278.95,198.56,273.46,206.74,266.44,213.79"/>
	<path style="clip-path:url(#SVGID_00000139266563492732103580000011240779624319439516_);fill:#0A0A0A;" d="M185.95,410.36
		c0,19.96-16.19,36.19-36.06,36.19h-19.32v-72.49h19.32C169.76,374.08,185.95,390.32,185.95,410.36 M173.82,410.36
		c0-13.29-10.79-24.14-23.95-24.14h-7.19v48.17h7.19C163.03,434.39,173.82,423.57,173.82,410.36"/>
	<path style="clip-path:url(#SVGID_00000139266563492732103580000011240779624319439516_);fill:#0A0A0A;" d="M434.67,419.59
		c0,15.29-12.4,27.74-27.64,27.74c-15.23,0-27.64-12.45-27.64-27.74c0-15.29,12.4-27.74,27.64-27.74
		C422.27,391.85,434.67,404.28,434.67,419.59 M422.75,419.59c0-8.75-7.11-15.77-15.71-15.77c-8.72,0-15.8,7.02-15.8,15.77
		c0,8.74,7.11,15.77,15.8,15.77C415.64,435.36,422.75,428.31,422.75,419.59"/>
	<path style="clip-path:url(#SVGID_00000139266563492732103580000011240779624319439516_);fill:#0A0A0A;" d="M165.2,311.29H165
		c-3.4,0-6.16,2.77-6.16,6.18c0,3.39,2.71,6.13,6.07,6.18h13.66v11.17c-4.25,3.89-10.31,6.08-16.09,6.08
		c-13.24,0-24.51-11.02-24.51-24.6c0-12.34,9.93-24.6,24.51-24.6c2.93,0.05,6.12,0.67,9.13,1.84c0.48,0.27,0.99,0.48,1.56,0.64
		c3.45,0.91,6.95-1.05,7.84-4.39c0.88-3.34-1.2-6.8-4.63-7.71v-0.02c-4.38-1.81-9.04-2.7-13.88-2.7
		c-20.07,0-36.92,16.72-36.92,36.95c0,18.91,15.42,37.05,36.92,37.05c11.65,0,20.64-5.03,28.39-13.58v-28.48H165.2z"/>
	<path style="clip-path:url(#SVGID_00000139266563492732103580000011240779624319439516_);fill:#0A0A0A;" d="M254.48,303.15v-0.17
		v-0.14c-0.17-3.15-2.78-5.67-5.95-5.67c-3.19,0-5.8,2.51-5.95,5.67c0,0.1-0.02,0.21-0.02,0.33c0,0.12,0,0.21,0.02,0.33v-0.65
		c-4.55-3.13-10.04-4.94-15.71-4.94c-15.15,0-27.55,12.45-27.55,27.74s12.4,27.74,27.55,27.74c5.68,0,11.17-1.81,15.71-4.94v4.27
		h11.92v-49.38C254.48,303.27,254.48,303.2,254.48,303.15 M242.35,326.08c-0.48,8.27-7.19,14.72-15.53,14.72
		c-8.53,0-15.53-6.94-15.53-15.58c0-8.56,7-15.58,15.53-15.58c8.34,0,15.04,6.46,15.53,14.72V326.08z"/>
	<path style="clip-path:url(#SVGID_00000139266563492732103580000011240779624319439516_);fill:#0A0A0A;" d="M317.57,297.96
		c-5.4,0-10.5,2.08-14.39,5.7c-4.07-3.62-9.37-5.8-15.23-5.8c-3.84,0-8.13,1.12-11.25,2.98c-0.69-2.14-2.68-3.7-5.04-3.7
		c-2.88,0-5.21,2.31-5.28,5.18v50.26h11.74v-33.62c0-5.22,4.17-8.94,9.37-9.21c5.01,0.1,9.09,4.18,9.09,9.21v33.62h11.73v-33.62
		c0-5.03,4.25-9.21,9.28-9.21c5.11,0,9.18,4.18,9.18,9.21v33.62h11.74v-33.62C338.48,307.36,329.12,297.96,317.57,297.96"/>
	<path style="clip-path:url(#SVGID_00000139266563492732103580000011240779624319439516_);fill:#0A0A0A;" d="M282.09,392.61
		l-11.73,36.24l-11.74-36.24h-11.65l17.71,50.52c0.12,0.38,0.27,0.76,0.46,1.1c1.01,1.86,2.97,3.12,5.22,3.12
		c2.25,0,4.2-1.26,5.21-3.12c0.19-0.34,0.34-0.71,0.46-1.1l17.71-50.52H282.09z"/>
	<path style="clip-path:url(#SVGID_00000139266563492732103580000011240779624319439516_);fill:#0A0A0A;" d="M364.29,373.31
		c-3.43,0-6.19,2.79-6.19,6.22v67.03h12.4v-67.01C370.48,376.1,367.7,373.31,364.29,373.31"/>
	<path style="clip-path:url(#SVGID_00000139266563492732103580000011240779624319439516_);fill:#0A0A0A;" d="M469.55,391.83
		c-5.68,0-11.17,1.7-15.71,4.94h-0.01c-0.23-3.12-2.8-5.56-5.96-5.56c-3.15,0-5.73,2.46-5.95,5.56h-0.01v70.51h11.92v-24.9
		c4.55,3.24,10.03,4.94,15.71,4.94c15.23,0,27.64-12.45,27.64-27.74C497.19,404.28,484.79,391.83,469.55,391.83 M469.55,435.36
		c-8.42,0-15.34-6.56-15.71-14.91v-1.7c0-8.37,7.29-14.91,15.71-14.91c8.61,0,15.71,7.02,15.71,15.77
		C485.27,428.32,478.17,435.36,469.55,435.36"/>
	<path style="clip-path:url(#SVGID_00000139266563492732103580000011240779624319439516_);fill:#0A0A0A;" d="M588.21,391.83h-0.28
		c-3.98,0-7.86,1.05-11.27,3.05l-0.52,0.34c-0.74-2.33-2.91-4.01-5.47-4.01c-3.17,0-5.75,2.58-5.75,5.77v49.59h11.73v-31.46
		c0-6.2,4.99-11.28,11.05-11.48c0.17,0.02,0.33,0.02,0.5,0.02c3.24,0,5.88-2.65,5.88-5.91
		C594.09,394.48,591.46,391.83,588.21,391.83"/>
	<path style="clip-path:url(#SVGID_00000139266563492732103580000011240779624319439516_);fill:#0A0A0A;" d="M401.91,323.32
		c-1.13-14.15-13.35-25.46-27.55-25.46c-15.05,0-27.55,12.72-27.55,27.74c0,15.29,12.3,27.74,27.55,27.74h3.53
		c3.29,0,5.97-2.69,5.97-5.99c0-3.31-2.68-5.99-5.97-5.99h-3.53c-5.68,0-10.89-3.05-13.64-7.97h40.23l0.29-1.33
		c0.38-1.89,0.76-3.8,0.76-5.8C402.02,325.42,402.02,324.46,401.91,323.32 M359.13,321.81c1.61-6.37,7.38-11.97,15.23-11.97
		c7.38,0,13.64,5.03,15.34,11.97H359.13z"/>
	<path style="clip-path:url(#SVGID_00000139266563492732103580000011240779624319439516_);fill:#0A0A0A;" d="M246.44,417.3
		c-1.13-14.15-13.35-25.46-27.55-25.46c-15.05,0-27.55,12.72-27.55,27.74c0,15.29,12.3,27.74,27.55,27.74h3.53
		c3.29,0,5.97-2.69,5.97-5.99c0-3.31-2.68-5.99-5.97-5.99h-3.53c-5.68,0-10.9-3.05-13.64-7.97h40.23l0.29-1.33
		c0.38-1.89,0.76-3.81,0.76-5.8C246.55,419.4,246.55,418.43,246.44,417.3 M203.66,415.78c1.61-6.37,7.38-11.97,15.24-11.97
		c7.38,0,13.64,5.03,15.34,11.97H203.66z"/>
	<path style="clip-path:url(#SVGID_00000139266563492732103580000011240779624319439516_);fill:#0A0A0A;" d="M349.27,417.3
		c-1.13-14.15-13.35-25.46-27.56-25.46c-15.05,0-27.55,12.72-27.55,27.74c0,15.29,12.3,27.74,27.55,27.74h3.53
		c3.29,0,5.97-2.69,5.97-5.99c0-3.31-2.68-5.99-5.97-5.99h-3.53c-5.68,0-10.89-3.05-13.64-7.97h40.23l0.28-1.33
		c0.38-1.89,0.76-3.81,0.76-5.8C349.36,419.4,349.36,418.43,349.27,417.3 M306.48,415.78c1.61-6.37,7.38-11.97,15.23-11.97
		c7.38,0,13.64,5.03,15.34,11.97H306.48z"/>
	<path style="clip-path:url(#SVGID_00000139266563492732103580000011240779624319439516_);fill:#0A0A0A;" d="M557.97,417.3
		c-1.13-14.15-13.35-25.46-27.56-25.46c-15.04,0-27.55,12.72-27.55,27.74c0,15.29,12.3,27.74,27.55,27.74h3.54
		c3.29,0,5.97-2.69,5.97-5.99c0-3.31-2.68-5.99-5.97-5.99h-3.54c-5.67,0-10.89-3.05-13.63-7.97h40.23l0.29-1.33
		c0.38-1.89,0.76-3.81,0.76-5.8C558.08,419.4,558.08,418.43,557.97,417.3 M515.19,415.78c1.61-6.37,7.38-11.97,15.23-11.97
		c7.38,0,13.64,5.03,15.34,11.97H515.19z"/>
</g>
</svg>
