<svg width="494" height="326" viewBox="0 0 494 326" fill="none" xmlns="http://www.w3.org/2000/svg">
<path d="M445.525 30.7157C444.554 27.8778 442.775 25.386 440.405 23.5477C438.614 22.4943 436.628 21.815 434.568 21.5509L432.981 21.2437V14.8437C432.981 14.8437 415.88 3.52854 405.333 1.94134C394.785 0.354138 370.875 -1.48906 369.134 1.94134C368.063 4.67597 367.424 7.5606 367.24 10.4917C359.355 9.46774 351.419 8.54614 343.534 7.67574C342.458 6.82396 341.222 6.19714 339.899 5.83254C333.942 4.33648 327.856 3.41071 321.723 3.06774L307.541 2.40214L277.742 1.07094H215.534L185.787 2.40214L171.605 3.06774C165.455 3.41362 159.353 4.33932 153.377 5.83254C152.084 6.1938 150.881 6.82165 149.845 7.67574C141.909 8.54614 133.973 9.46774 126.037 10.4917C125.878 7.55708 125.238 4.66847 124.142 1.94134C122.453 -1.48906 98.5422 0.354138 87.995 1.94134C77.4478 3.52854 60.091 14.8437 60.091 14.8437V21.2437L58.4526 21.5509C56.4097 21.8217 54.4421 22.5008 52.667 23.5477C50.3243 25.4119 48.5506 27.8951 47.547 30.7157C15.291 103.625 -5.90576 183.394 1.46704 262.857C3.15664 281.493 7.45744 301.717 21.947 313.442C31.1856 320.107 42.1592 323.948 53.5374 324.501C57.3661 325.164 61.2294 325.609 65.1086 325.833C66.7084 325.911 68.3042 325.613 69.7678 324.962C73.0958 323.119 74.3758 316.975 75.8606 313.749C78.8814 307.247 81.9022 300.745 84.8206 294.191C90.4526 281.391 95.7262 268.591 100.181 255.279C102.78 246.557 106.209 238.105 110.421 230.037C111.841 227.566 113.468 225.219 115.285 223.023L115.848 222.357C120.293 217.673 125.711 214.021 131.72 211.657C135.827 210.572 140.068 210.072 144.315 210.172H146.005H151.483L159.777 211.401C174.426 212.554 189.134 212.759 203.809 212.015H288.955C303.63 212.758 318.338 212.553 332.987 211.401C335.752 211.042 338.465 210.581 341.23 210.172H346.76H348.398C352.662 210.074 356.919 210.574 361.045 211.657C367.06 214.009 372.48 217.663 376.917 222.357L377.531 223.074C379.447 225.233 381.161 227.564 382.651 230.037C386.863 238.105 390.292 246.557 392.891 255.279C397.499 268.489 402.773 281.391 408.251 294.191C411.169 300.745 414.139 307.247 417.16 313.749C418.645 316.975 419.925 323.119 423.304 324.962C424.752 325.605 426.329 325.903 427.912 325.833C431.792 325.615 435.655 325.17 439.483 324.501C450.863 323.957 461.839 320.115 471.073 313.442C485.717 301.717 489.966 281.493 491.553 262.857C499.131 183.394 477.883 103.625 445.525 30.7157ZM152.2 12.5909C152.801 11.6639 153.736 11.0039 154.811 10.7477C160.388 9.37984 166.077 8.52297 171.809 8.18774L186.043 7.52214L215.534 6.19094H277.64L307.233 7.52214L321.416 8.18774C327.131 8.52008 332.804 9.37702 338.363 10.7477C339.438 11.0039 340.373 11.6639 340.974 12.5909C342.673 16.7777 343.1 21.3723 342.203 25.8005C342.203 26.8245 340.974 34.2997 330.734 80.6869L330.171 83.2469C329.301 88.6741 325.051 106.338 309.691 107.004H183.893C168.021 106.338 163.925 88.6741 163.003 83.1445C163.003 83.1445 163.003 82.0693 162.44 80.5333C152.558 35.8869 151.073 27.0805 151.022 25.5957C150.125 21.2394 150.535 16.7153 152.2 12.5909ZM167.56 189.231C161.879 189.231 156.326 187.546 151.602 184.39C146.879 181.234 143.197 176.748 141.023 171.5C138.849 166.251 138.28 160.476 139.389 154.904C140.497 149.332 143.232 144.214 147.249 140.197C151.266 136.18 156.384 133.445 161.956 132.336C167.528 131.228 173.303 131.797 178.552 133.971C183.8 136.145 188.286 139.826 191.442 144.55C194.598 149.273 196.283 154.827 196.283 160.508C196.283 168.108 193.271 175.398 187.906 180.782C182.542 186.166 175.262 189.204 167.662 189.231H167.56ZM226.133 124.105C226.133 123.537 226.301 122.983 226.616 122.512C226.931 122.04 227.379 121.673 227.903 121.456C228.427 121.239 229.003 121.182 229.559 121.292C230.115 121.403 230.626 121.676 231.027 122.077C231.428 122.478 231.701 122.989 231.812 123.545C231.923 124.101 231.866 124.678 231.649 125.202C231.432 125.726 231.064 126.173 230.593 126.489C230.121 126.804 229.567 126.972 229 126.972C228.239 126.972 227.51 126.67 226.972 126.132C226.435 125.594 226.133 124.865 226.133 124.105ZM233.301 134.805C232.714 134.866 232.122 134.745 231.607 134.458C231.092 134.17 230.678 133.731 230.421 133.2C230.165 132.668 230.079 132.071 230.174 131.488C230.27 130.906 230.543 130.368 230.956 129.946C231.369 129.525 231.902 129.241 232.482 129.134C233.063 129.027 233.662 129.101 234.198 129.347C234.735 129.593 235.182 129.998 235.48 130.508C235.777 131.017 235.91 131.606 235.861 132.194C235.797 132.901 235.474 133.559 234.954 134.041C234.434 134.523 233.754 134.795 233.045 134.805H233.301ZM253.781 131.938C253.781 132.507 253.611 133.064 253.294 133.536C252.976 134.009 252.525 134.376 251.999 134.592C251.472 134.807 250.893 134.861 250.335 134.746C249.777 134.631 249.267 134.353 248.868 133.947C248.469 133.541 248.2 133.025 248.095 132.465C247.99 131.906 248.055 131.328 248.279 130.805C248.504 130.282 248.88 129.838 249.358 129.529C249.836 129.22 250.395 129.061 250.965 129.071C251.355 129.083 251.739 129.175 252.092 129.341C252.446 129.507 252.762 129.744 253.021 130.036C253.28 130.329 253.476 130.671 253.598 131.042C253.72 131.413 253.764 131.805 253.729 132.194L253.781 131.938ZM252.398 124.105C252.398 123.537 252.566 122.983 252.881 122.512C253.196 122.04 253.644 121.673 254.168 121.456C254.692 121.239 255.269 121.182 255.825 121.292C256.381 121.403 256.892 121.676 257.293 122.077C257.694 122.478 257.967 122.989 258.078 123.545C258.188 124.101 258.131 124.678 257.914 125.202C257.697 125.726 257.33 126.173 256.858 126.489C256.387 126.804 255.833 126.972 255.265 126.972C254.885 126.979 254.506 126.909 254.152 126.768C253.799 126.627 253.477 126.417 253.205 126.15C252.933 125.883 252.717 125.565 252.57 125.214C252.423 124.862 252.347 124.485 252.347 124.105H252.398ZM246.613 127.074C246.046 127.074 245.491 126.906 245.02 126.591C244.548 126.276 244.181 125.828 243.964 125.304C243.747 124.78 243.69 124.204 243.801 123.648C243.911 123.091 244.184 122.581 244.585 122.18C244.986 121.779 245.497 121.505 246.053 121.395C246.609 121.284 247.186 121.341 247.71 121.558C248.234 121.775 248.682 122.142 248.997 122.614C249.312 123.086 249.48 123.64 249.48 124.207C249.48 124.967 249.178 125.697 248.64 126.234C248.102 126.772 247.373 127.074 246.613 127.074ZM245.23 132.194C245.23 132.761 245.062 133.316 244.747 133.787C244.432 134.259 243.984 134.626 243.46 134.843C242.936 135.06 242.36 135.117 241.804 135.006C241.247 134.896 240.737 134.623 240.336 134.222C239.935 133.821 239.662 133.31 239.551 132.753C239.44 132.197 239.497 131.621 239.714 131.097C239.931 130.573 240.299 130.125 240.77 129.81C241.242 129.495 241.796 129.327 242.363 129.327C243.115 129.34 243.831 129.648 244.357 130.185C244.884 130.721 245.179 131.442 245.179 132.194H245.23ZM238.062 127.074C237.495 127.074 236.941 126.906 236.469 126.591C235.998 126.276 235.63 125.828 235.413 125.304C235.196 124.78 235.139 124.204 235.25 123.648C235.361 123.091 235.634 122.581 236.035 122.18C236.436 121.779 236.947 121.505 237.503 121.395C238.059 121.284 238.636 121.341 239.159 121.558C239.683 121.775 240.131 122.142 240.446 122.614C240.761 123.086 240.929 123.64 240.929 124.207C240.929 124.588 240.854 124.965 240.706 125.316C240.559 125.667 240.343 125.986 240.072 126.253C239.8 126.52 239.478 126.73 239.124 126.871C238.77 127.012 238.392 127.081 238.011 127.074H238.062ZM256.853 189.129C256.085 189.129 246.613 189.129 246.613 189.129C246.613 189.129 237.294 189.129 236.373 189.129C235.451 189.129 234.99 187.695 234.99 186.466C234.99 185.237 236.014 184.111 236.629 184.111H256.238C256.904 184.111 257.877 185.289 257.877 186.466C257.877 187.644 257.467 188.975 256.853 189.129ZM260.334 134.805C259.767 134.805 259.213 134.637 258.741 134.322C258.27 134.007 257.902 133.559 257.685 133.035C257.468 132.511 257.411 131.935 257.522 131.379C257.633 130.823 257.906 130.312 258.307 129.911C258.708 129.51 259.219 129.237 259.775 129.126C260.331 129.015 260.908 129.072 261.431 129.289C261.955 129.506 262.403 129.874 262.718 130.345C263.033 130.817 263.201 131.371 263.201 131.938C263.202 132.328 263.123 132.714 262.969 133.072C262.816 133.43 262.591 133.753 262.308 134.022C262.025 134.29 261.691 134.498 261.325 134.633C260.959 134.768 260.57 134.826 260.181 134.805H260.334ZM264.481 127.074C263.914 127.074 263.36 126.906 262.888 126.591C262.417 126.276 262.049 125.828 261.832 125.304C261.615 124.78 261.559 124.204 261.669 123.648C261.78 123.091 262.053 122.581 262.454 122.18C262.855 121.779 263.366 121.505 263.922 121.395C264.478 121.284 265.055 121.341 265.579 121.558C266.103 121.775 266.55 122.142 266.865 122.614C267.18 123.086 267.349 123.64 267.349 124.207C267.349 124.967 267.047 125.697 266.509 126.234C265.971 126.772 265.242 127.074 264.481 127.074ZM325.512 189.231C319.827 189.251 314.263 187.584 309.526 184.44C304.789 181.296 301.092 176.817 298.902 171.571C296.712 166.324 296.129 160.546 297.226 154.967C298.322 149.389 301.05 144.261 305.063 140.234C309.076 136.207 314.194 133.461 319.768 132.344C325.343 131.228 331.123 131.79 336.378 133.961C341.632 136.132 346.124 139.814 349.285 144.539C352.445 149.265 354.133 154.822 354.133 160.508C354.133 168.108 351.121 175.398 345.756 180.782C340.392 186.166 333.112 189.204 325.512 189.231ZM486.689 262.345C485.153 278.524 481.569 298.185 467.95 309.449C462.259 313.799 455.603 316.714 448.545 317.948C447.547 316.737 446.64 315.453 445.832 314.108C444.597 311.584 443.57 308.964 442.76 306.274C441.07 301.769 439.125 297.161 437.64 292.501C437.077 290.351 426.376 256.661 425.096 254.101C423.816 251.541 414.856 229.218 413.166 225.941C411.477 222.665 399.649 196.194 398.677 194.249C388.837 173.193 376.697 153.292 362.478 134.908C353.877 124.668 340.411 113.506 337.646 99.6309C337.083 96.8149 336.213 86.8309 336.213 86.8309C335.623 91.2606 334.523 95.6073 332.936 99.7845C330.488 103.378 327.693 106.722 324.59 109.769C320.866 112.788 316.535 114.97 311.893 116.169C307.95 116.169 246.357 116.169 246.357 116.169C246.357 116.169 184.917 116.169 180.769 116.169C176.142 114.971 171.828 112.788 168.123 109.769C164.988 106.738 162.174 103.393 159.726 99.7845C158.163 95.5996 157.064 91.2557 156.449 86.8309C156.449 86.8309 155.63 97.0709 155.016 99.6309C152.251 113.506 138.837 124.463 130.235 134.908C115.998 153.279 103.857 173.183 94.0366 194.249C93.0126 196.194 80.9294 222.665 79.4958 225.941C78.0622 229.218 68.8462 251.541 67.5662 254.101C66.2862 256.661 55.6366 290.351 55.0734 292.501C53.7934 297.161 51.8478 301.769 49.9534 306.274C49.1209 308.956 48.0942 311.575 46.8814 314.108C46.0732 315.453 45.1662 316.737 44.1678 317.948C37.1073 316.726 30.4485 313.81 24.763 309.449C10.9902 298.441 7.50864 278.729 6.02384 262.345C-0.376162 193.02 14.9838 115.759 52.1038 32.7637C52.6813 30.8142 53.7578 29.0493 55.227 27.6437C56.484 27.0232 57.8323 26.6084 59.2206 26.4149C87.8414 20.6805 117.025 16.1749 146.261 13.0517C145.383 17.1915 145.21 21.4496 145.749 25.6469C145.749 27.2341 146.926 34.7093 157.269 81.5061C157.627 82.9909 157.832 83.9125 157.832 83.9637C160.545 100.655 170.376 111.407 183.432 111.97H309.537C322.645 111.407 332.475 100.655 335.137 84.0661C335.137 84.0661 335.137 83.0421 335.701 81.6085C345.941 34.7093 347.272 27.2341 347.272 25.8517C347.786 21.5851 347.613 17.2637 346.76 13.0517C375.893 16.2261 405.025 20.6805 433.8 26.4149C435.174 26.6002 436.506 27.0156 437.742 27.6437C439.212 29.0578 440.304 30.8183 440.917 32.7637C477.678 115.759 493.141 193.02 486.689 262.345Z" fill="#00AB9A"/>
<path d="M363.912 109.564C373.187 109.564 380.705 102.045 380.705 92.7702C380.705 83.4953 373.187 75.9766 363.912 75.9766C354.637 75.9766 347.118 83.4953 347.118 92.7702C347.118 102.045 354.637 109.564 363.912 109.564Z" fill="#00AB9A"/>
<path d="M400.315 73.3653C409.562 73.3653 417.057 65.8695 417.057 56.623C417.057 47.3764 409.562 39.8806 400.315 39.8806C391.068 39.8806 383.573 47.3764 383.573 56.623C383.573 65.8695 391.068 73.3653 400.315 73.3653Z" fill="#00AB9A"/>
<path d="M436.462 108.847C445.539 108.847 452.897 101.489 452.897 92.4118C452.897 83.3348 445.539 75.9766 436.462 75.9766C427.385 75.9766 420.027 83.3348 420.027 92.4118C420.027 101.489 427.385 108.847 436.462 108.847Z" fill="#00AB9A"/>
<path d="M400.366 145.506C409.641 145.506 417.16 137.987 417.16 128.713C417.16 119.438 409.641 111.919 400.366 111.919C391.091 111.919 383.573 119.438 383.573 128.713C383.573 137.987 391.091 145.506 400.366 145.506Z" fill="#00AB9A"/>
<path d="M361.403 27.0806C360.611 27.2031 359.868 27.5395 359.253 28.0534C358.53 28.8776 357.974 29.8338 357.614 30.8694C355.94 35.8155 355.109 41.0078 355.157 46.2294C356.181 50.0182 359.048 49.8646 359.048 49.8646C360.403 50.1038 361.789 50.1038 363.144 49.8646C364.347 49.3002 365.283 48.2905 365.755 47.0486C366.631 43.9502 367.332 40.8049 367.854 37.6278C368.406 35.1933 368.647 32.6988 368.571 30.2038C368.213 29.7942 367.649 27.0806 361.403 27.0806Z" fill="#00AB9A"/>
<path d="M131.822 27.0806C132.614 27.2031 133.358 27.5395 133.973 28.0534C134.695 28.8776 135.252 29.8338 135.611 30.8694C137.261 35.8214 138.091 41.0097 138.069 46.2294C137.045 50.2742 133.973 50.2742 133.973 50.2742C132.618 50.5124 131.232 50.5124 129.877 50.2742C128.674 49.7099 127.738 48.7001 127.265 47.4582C126.39 44.3598 125.689 41.2145 125.166 38.0374C124.588 35.6073 124.347 33.1092 124.449 30.6134C125.013 29.7942 125.576 27.0806 131.822 27.0806Z" fill="#00AB9A"/>
<path d="M101.819 50.5814C99.259 50.5814 93.0126 50.5814 93.0126 50.5814C93.0126 50.5814 86.7662 50.5814 84.2062 50.5814C81.6462 50.5814 77.9598 55.0358 77.9598 57.0326V73.263C77.9598 75.4134 90.043 87.4966 90.1966 87.6502C90.6563 87.6957 91.1194 87.6957 91.579 87.6502H94.4462C94.9059 87.6957 95.369 87.6957 95.8286 87.6502C95.8286 87.6502 108.065 75.4134 108.065 73.263V57.0326C108.065 55.0358 104.379 50.5302 101.819 50.5814Z" fill="#00AB9A"/>
<path d="M101.819 134.652H84.2062C81.6462 134.652 77.9598 130.197 77.9598 128.201V111.97C77.9598 109.82 90.043 97.6854 90.1966 97.583C90.6563 97.5374 91.1194 97.5374 91.579 97.583H94.4462C94.9059 97.5374 95.369 97.5374 95.8286 97.583C95.8286 97.583 108.065 109.82 108.065 111.97V128.201C108.065 130.197 104.379 134.703 101.819 134.652Z" fill="#00AB9A"/>
<path d="M135.048 101.474C135.048 98.9142 135.048 92.6678 135.048 92.6678C135.048 92.6678 135.048 86.4214 135.048 83.8614C135.048 81.3014 130.593 77.615 128.597 77.615H112.366C110.216 77.615 98.0814 89.6982 97.979 89.8518C97.9843 90.3165 98.0357 90.7796 98.1326 91.2342V94.1014C98.0871 94.5611 98.0871 95.0241 98.1326 95.4838C98.1326 95.4838 110.369 107.721 112.52 107.721H128.853C130.593 107.669 135.099 103.983 135.048 101.474Z" fill="#00AB9A"/>
<path d="M50.9774 101.474C50.9774 98.9142 50.9774 92.6678 50.9774 92.6678C50.9774 92.6678 50.9774 86.4214 50.9774 83.8614C50.9774 81.3014 55.4318 77.615 57.4286 77.615H73.659C75.8094 77.615 87.9438 89.6982 88.0462 89.8518C88.0917 90.3115 88.0917 90.7745 88.0462 91.2342V94.1014C88.0917 94.5611 88.0917 95.0241 88.0462 95.4838C88.0462 95.4838 75.8094 107.721 73.659 107.721H57.4286C55.4318 107.669 50.9262 103.983 50.9774 101.474Z" fill="#00AB9A"/>
</svg>
