<svg width="465" height="464" viewBox="0 0 465 464" fill="none" xmlns="http://www.w3.org/2000/svg">
<path d="M337.05 461.837L336.589 461.734C334.95 461.274 333.312 460.659 331.725 459.891L331.366 459.738C318.157 453.645 308.736 439.565 298.701 420.365C294.502 412.275 287.386 397.53 279.194 380.429C264.755 350.272 246.733 312.794 235.469 293.133L233.523 289.754C228.813 281.92 227.174 280.794 227.021 280.691C217.907 275.622 93.9008 230.054 82.7392 230.054C81.2544 230.054 78.4896 230.771 73.984 234.15C65.8432 240.141 54.4768 252.634 41.984 269.376L41.216 270.4C34.4576 279.411 24.2688 293.03 25.0368 320.678L25.2416 327.642L20.5824 322.47C19.6096 321.395 18.688 320.269 17.8176 319.142C5.5808 303.168 0 280.742 0 266.714C0 239.936 13.4144 200.922 35.9424 162.368C57.7536 124.89 84.1216 92.8384 91.648 83.9296L94.208 80.9088H96.2048C97.024 80.9088 97.792 80.9088 98.6624 80.9088L101.939 80.704L101.325 83.9296C101.274 84.4416 101.222 84.8 101.171 85.1584L101.018 86.4384C101.018 86.848 100.915 87.2064 100.915 87.616C100.864 88.384 100.915 88.9472 100.915 89.5616C100.915 92.8384 101.888 95.3984 103.885 97.344C108.339 101.645 116.275 101.542 116.326 101.491C132.045 101.491 153.6 80.96 153.6 66.0608C153.6 65.3952 153.6 64.7296 153.498 64.1152C153.498 63.4496 153.446 63.1424 153.395 62.8352C153.139 59.968 152.474 57.664 151.45 55.9232C151.194 55.5136 151.091 55.3088 150.989 55.1552C150.477 54.2848 149.709 53.4656 148.787 52.8L147.968 52.2368C147.456 51.8784 147.2 51.7248 146.944 51.6224C146.278 51.3152 145.971 51.1616 145.664 51.0592C145.101 50.8544 144.64 50.6496 144.179 50.5472C143.565 50.3424 143.206 50.24 142.899 50.24C141.056 49.8816 139.315 49.6768 137.37 49.5744C136.858 49.5232 136.499 49.5744 136.141 49.5744C135.475 49.5232 135.066 49.5232 134.707 49.5744H133.069L132.403 48.0384C132.096 47.3728 131.686 46.7072 131.174 45.9904C130.099 44.352 128.768 42.9696 127.898 42.048L126.362 40.512L128.154 38.0032C128.512 37.4912 128.819 37.0304 129.178 36.5696C134.4 29.2992 139.878 23.6672 145.869 19.4688C150.477 16.2432 155.29 13.9392 160.461 12.4032C162.099 11.84 163.994 11.3792 166.349 10.8672C171.213 9.84319 176.64 9.38239 183.398 9.38239C199.014 9.38239 200.448 30.1696 201.011 38.0544L201.216 41.3312C201.37 44.3008 201.421 47.2192 201.472 49.984C201.574 55.2576 201.728 62.528 202.701 63.808C206.694 67.8016 256.154 82.3424 268.954 82.3424C274.227 82.3424 291.123 72.6144 306.074 64.0128C310.118 61.6576 314.163 59.3536 318.003 57.2032C318.566 56.896 319.181 56.5376 319.744 56.2304L320.563 55.7696C334.285 48.1408 341.453 45.1712 345.19 45.632C346.47 45.888 347.443 46.1952 348.416 46.5024C348.672 46.5536 348.979 46.656 349.389 46.7584C349.696 46.8096 350.003 46.912 350.31 47.0144C350.822 47.168 351.386 47.3216 351.898 47.5776C351.949 47.5776 352.256 47.68 352.563 47.8336C352.922 47.936 353.485 48.0896 354.048 48.3968C354.662 48.6016 355.635 49.0112 356.557 49.4208C357.53 49.8304 358.451 50.2912 359.424 50.752C360.243 51.1616 361.216 51.5712 362.138 52.1344C362.906 52.4928 363.878 53.0048 364.851 53.6192C365.824 54.08 366.95 54.7456 368.128 55.5136C369.51 56.3328 370.995 57.3056 372.429 58.3296C373.606 59.0976 374.784 59.8656 375.962 60.7872C376.934 61.4528 377.958 62.2208 378.931 62.9888C380.109 63.808 381.389 64.832 382.618 65.856C383.846 66.8288 385.024 67.8016 386.253 68.8256L387.43 69.8496C388.25 70.5664 389.069 71.232 389.837 72C392.704 74.5088 395.725 77.3248 399.411 80.96L407.859 89.6128C415.949 98.1632 424.397 108.147 433.05 119.258L435.968 123.098L434.79 133.952C434.688 134.669 434.637 135.181 434.586 135.744L434.074 140.301C433.254 147.981 432.179 157.76 431.053 168.41C430.848 170.202 430.746 171.584 430.541 172.966L429.21 185.818C429.056 187.149 428.902 188.429 428.8 189.76L428.339 194.419C427.981 197.542 427.674 200.563 427.418 203.533C427.162 205.99 426.906 208.346 426.701 210.701L426.598 211.571L426.189 215.565C425.984 217.357 425.83 219.149 425.677 220.89L425.216 225.754C425.011 228.109 424.806 230.31 424.602 232.461C424.243 236.198 423.987 239.629 423.782 242.598L423.629 244.442C423.526 245.261 423.526 245.978 423.475 246.643C421.427 276.544 410.266 370.394 391.885 412.531C372.48 456.973 337.766 461.939 337.459 461.99H336.998L337.05 461.837ZM333.056 454.874L333.67 455.13C334.899 455.744 336.128 456.256 337.459 456.666C341.146 455.949 370.278 449.19 387.277 410.33C405.35 368.755 416.41 275.776 418.406 246.643C418.509 245.414 418.56 244.646 418.611 243.827L418.765 242.086C418.97 239.117 419.277 235.686 419.584 231.898C419.789 229.747 419.994 227.546 420.198 225.19L420.659 220.378C420.813 218.586 421.018 216.794 421.171 214.95L421.581 211.008C421.581 211.008 421.581 210.496 421.683 210.086C421.888 207.782 422.144 205.325 422.4 202.918C422.656 199.949 422.963 196.877 423.322 193.754L423.782 189.197C423.885 187.917 424.038 186.534 424.192 185.203L425.523 172.198C425.728 170.816 425.83 169.485 425.984 168.154C427.11 157.094 428.186 147.264 429.005 139.584L429.466 135.078C429.466 134.464 429.568 133.798 429.67 133.082L430.643 124.326L429.005 122.176C420.506 111.219 412.109 101.338 404.173 92.8896L395.878 84.3904C392.294 80.8576 389.274 78.0416 386.509 75.584C385.69 74.8672 384.922 74.2016 384.154 73.536L382.976 72.512C381.798 71.5392 380.621 70.5664 379.443 69.5936C378.266 68.6208 377.088 67.6992 375.91 66.88C374.886 66.0608 373.914 65.3952 372.941 64.6784C371.763 63.7568 370.688 63.04 369.562 62.3232C368.128 61.3504 366.746 60.4288 365.363 59.6096C364.288 58.8928 363.264 58.3296 362.291 57.8176C361.318 57.2032 360.55 56.7936 359.782 56.4352C358.758 55.872 357.99 55.4624 357.171 55.104C356.25 54.6432 355.482 54.2336 354.662 53.9264C353.69 53.5168 352.87 53.1072 352.051 52.8512C351.437 52.544 351.078 52.4416 350.771 52.3904L350.259 52.1856C349.491 51.8784 349.184 51.776 348.928 51.7248L348.314 51.52C347.597 51.3152 347.29 51.2128 346.982 51.1616C345.958 50.8544 345.19 50.5984 344.32 50.3936C342.886 50.24 337.818 51.776 323.021 59.968L322.15 60.4288C321.587 60.736 321.024 61.0432 320.512 61.3504C316.621 63.552 312.627 65.856 308.582 68.16C288.051 79.9872 275.149 87.2064 268.902 87.2064C256.717 87.2064 204.954 73.1264 199.014 67.136C196.71 64.832 196.506 59.9168 196.301 49.8304C196.25 47.1168 196.198 44.2496 196.045 41.3312L195.84 38.1568C194.714 21.6192 190.822 14.2976 183.347 14.2976C176.947 14.2976 171.878 14.7584 167.322 15.68C165.478 16.0896 163.686 16.4992 161.946 17.0624C157.235 18.4448 152.934 20.544 148.787 23.4624C143.258 27.3536 138.189 32.576 133.274 39.4368C133.171 39.5392 133.069 39.6928 133.018 39.7952C133.786 40.6656 134.656 41.6896 135.373 42.816C135.731 43.2768 136.038 43.7888 136.346 44.2496C136.448 44.2496 136.602 44.2496 136.755 44.2496C137.062 44.2496 137.472 44.2496 137.83 44.3008C139.878 44.4032 141.824 44.608 143.667 45.0176C144.128 45.0176 144.896 45.2224 145.715 45.5296C146.176 45.632 146.842 45.888 147.405 46.144C147.814 46.2976 148.326 46.5024 148.838 46.7584C149.402 46.912 150.17 47.3728 150.989 47.9872L151.757 48.448C153.293 49.5744 154.47 50.9056 155.494 52.4928C155.75 52.9536 155.853 53.1072 155.955 53.312C157.286 55.5648 158.157 58.4832 158.515 62.1184C158.566 62.528 158.618 63.0912 158.618 63.6032C158.72 64.064 158.72 64.9344 158.72 65.9072C158.72 83.3664 134.605 106.458 116.378 106.458C116.07 106.458 106.291 106.714 100.301 100.877C97.28 97.9584 95.744 94.0672 95.744 89.408C95.744 88.5888 95.744 87.9232 95.7952 87.2576C95.7952 87.1552 95.7952 87.104 95.7952 87.0016L95.6416 86.848L95.4368 87.104C87.9616 95.9616 61.8496 127.706 40.2432 164.826C18.176 202.662 5.0176 240.704 5.0176 266.611C5.0176 279.411 10.0864 299.072 19.8656 313.306C20.9408 288.73 30.8736 275.469 37.0176 267.277L37.7856 266.253C46.848 254.17 59.904 238.042 70.8096 230.003C75.4176 226.573 79.2576 224.883 82.6368 224.883C95.4368 224.883 219.187 270.451 229.427 276.186C230.758 276.954 232.858 278.899 237.773 287.091L239.77 290.522C251.085 310.336 269.158 347.917 283.648 378.125C291.84 395.174 298.906 409.869 303.053 417.907C314.214 439.206 322.918 449.958 332.851 454.771L333.056 454.874Z" fill="#00AB9A"/>
<path d="M260.608 179.776C260.608 201.382 233.472 220.224 222.054 220.224C210.637 220.224 195.686 214.182 195.686 198.054C198.81 199.283 202.342 199.693 205.773 199.693C216.013 199.693 240.128 191.859 240.128 164.416C240.128 160.525 239.411 157.402 238.285 154.79C246.682 154.79 260.659 158.067 260.659 179.674L260.608 179.776Z" fill="#00AB9A"/>
<path d="M222.054 222.784C208.128 222.784 193.126 215.053 193.126 198.054V194.266L196.608 195.648C199.117 196.621 202.086 197.133 205.773 197.133C216.166 197.133 237.568 189.146 237.568 164.416C237.568 161.139 237.005 158.272 235.93 155.866L234.291 152.23H238.234C245.709 152.23 263.168 154.893 263.168 179.674C263.168 202.355 235.213 222.682 222.054 222.682V222.784ZM198.554 201.587C200.704 214.182 214.477 217.664 222.054 217.664C232.141 217.664 258.048 199.642 258.048 179.776C258.048 163.75 249.958 158.733 241.92 157.658C242.432 159.757 242.688 162.061 242.688 164.467C242.688 193.037 217.805 202.304 205.773 202.304C203.11 202.304 200.704 202.099 198.502 201.587H198.554Z" fill="#00AB9A"/>
<path d="M452.864 170.816C434.176 187.712 438.989 203.942 431.77 313.664C424.55 423.386 388.352 460.71 348.006 460.71C344.166 460.71 340.582 460.198 337.254 459.226C337.818 459.123 371.046 453.696 389.581 411.251C408.269 368.448 419.123 273.83 420.915 246.694C422.707 219.558 433.306 123.558 433.306 123.558C442.829 136.154 449.331 146.086 451.021 149.056C456.448 158.682 452.813 170.765 452.813 170.765L452.864 170.816Z" fill="#00AB9A"/>
<path d="M348.006 463.27C343.859 463.27 340.122 462.758 336.538 461.683L325.632 458.458L336.845 456.717C337.152 456.717 369.357 451.187 387.226 410.278C405.453 368.55 416.41 275.674 418.355 246.592C420.147 219.712 430.643 124.275 430.746 123.354L431.462 116.954L435.354 122.074C444.467 134.054 451.328 144.397 453.274 147.878C459.162 158.323 455.475 171.021 455.322 171.584L455.117 172.25L454.605 172.71C441.19 184.845 440.576 197.286 437.965 249.664C437.146 266.509 436.07 287.501 434.33 313.818C430.643 369.626 414.566 463.27 348.006 463.27ZM435.149 130.317C432.742 152.333 424.96 224.218 423.475 246.899C421.53 276.237 410.419 369.933 391.936 412.275C379.597 440.589 360.909 452.877 349.03 458.099C394.65 457.331 423.117 406.029 429.261 313.459C431.002 287.142 432.026 266.202 432.896 249.357C435.558 195.955 436.224 182.746 450.662 169.382C451.277 166.874 453.018 157.658 448.922 150.336C447.642 148.032 442.829 140.557 435.251 130.317H435.149Z" fill="#00AB9A"/>
<path d="M156.365 65.9584C156.365 82.24 133.478 103.949 116.582 103.949C116.582 103.949 98.5088 104.563 98.5088 89.4592C98.5088 85.824 98.9184 83.3664 98.9184 83.3664C112.998 82.9056 130.867 78.8096 135.885 52.0832C136.09 50.24 135.68 48.448 134.912 46.8096C146.739 46.8096 156.365 49.6768 156.365 65.9584Z" fill="#00AB9A"/>
<path d="M116.224 106.509C114.381 106.509 105.882 106.202 100.454 100.979C97.4336 98.0608 95.8976 94.2208 95.8976 89.5104C95.8976 85.7216 96.3072 83.1104 96.3584 83.008L96.7168 80.96H98.816C112.435 80.448 128.666 76.7104 133.325 51.6736C133.427 50.6496 133.171 49.3184 132.557 47.936L130.867 44.3008H134.861C146.022 44.3008 158.874 46.7584 158.874 66.0096C158.874 83.4176 134.758 106.56 116.531 106.56C116.531 106.56 116.378 106.56 116.173 106.56L116.224 106.509ZM101.171 85.8752C101.069 86.848 101.018 88.0768 101.018 89.5104C101.018 92.7872 101.99 95.3472 103.987 97.2928C108.442 101.594 116.378 101.44 116.48 101.44C132.198 101.44 153.754 80.9088 153.754 66.0096C153.754 53.6192 147.917 50.1376 138.342 49.5232C138.496 50.496 138.496 51.52 138.342 52.4416C132.762 82.3424 110.95 85.3632 101.12 85.8752H101.171Z" fill="#00AB9A"/>
<path d="M95.488 85.9776L94.7712 85.8752C89.3952 84.3392 85.6064 80.448 84.1728 74.8672C81.7152 65.3952 86.528 53.1584 96.6656 43.0208C114.33 25.3568 131.174 37.8496 131.379 37.952C133.325 39.8976 135.782 42.5088 137.216 45.6832C138.24 47.936 138.65 50.1888 138.394 52.3392V52.4928C132.301 84.7488 107.213 85.568 98.9696 85.8752C97.792 85.8752 96.6144 85.9264 95.488 85.9264V85.9776ZM117.299 38.6688C112.486 38.6688 106.547 40.4608 100.301 46.656C91.5456 55.4112 87.1424 66.0096 89.1392 73.5872C90.112 77.2224 92.416 79.7312 95.8464 80.8576C96.8192 80.8576 97.792 80.8576 98.816 80.8064C112.435 80.3456 128.614 76.608 133.325 51.6736C133.478 50.496 133.222 49.216 132.557 47.8336C131.43 45.376 129.434 43.2256 128 41.792C127.846 41.6896 123.597 38.6176 117.248 38.6176L117.299 38.6688Z" fill="#00AB9A"/>
<path d="M273.306 44.2496C273.306 53.312 257.638 69.5424 245.606 69.5424C245.606 69.5424 232.346 70.1568 232.346 59.3024C232.346 42.4064 249.242 33.3952 260.659 33.3952C266.086 33.3952 273.306 35.2384 273.306 44.2496Z" fill="#00AB9A"/>
<path d="M245.146 72.1536C243.456 72.1536 237.261 71.8976 233.267 68.0576C230.963 65.856 229.786 62.9376 229.786 59.3536C229.786 41.024 248.064 30.8864 260.659 30.8864C270.182 30.8864 275.866 35.904 275.866 44.3008C275.866 54.8992 258.97 72.1536 245.555 72.1536C245.555 72.1536 245.402 72.1536 245.146 72.1536ZM260.659 35.9552C250.112 35.9552 234.906 44.3008 234.906 59.3024C234.906 61.4528 235.52 63.04 236.8 64.2688C239.821 67.1872 245.453 66.9824 245.504 66.9824C256.666 66.9824 270.797 51.5712 270.797 44.2496C270.797 42.2016 270.797 35.9552 260.71 35.9552H260.659Z" fill="#00AB9A"/>
<path d="M462.746 109.069C460.8 104.717 457.728 102.31 454.093 102.31C431.206 102.31 421.018 89.6128 410.47 76.096L410.061 75.584L406.886 71.4368C406.886 71.4368 406.682 71.232 406.63 71.1296L405.76 74.1504L404.838 77.1712L402.79 84.032L401.971 86.848L401.152 89.664C401.459 90.0224 401.818 90.3808 402.176 90.7392L405.248 93.9648C413.645 103.027 422.298 113.37 430.694 124.275C430.899 124.582 431.104 124.89 431.309 125.146C431.872 125.914 432.435 126.63 432.947 127.347C433.715 128.371 434.483 129.395 435.2 130.419C435.61 130.982 436.019 131.546 436.429 132.058C437.453 133.542 438.477 134.925 439.398 136.205C444.518 143.424 447.795 148.544 448.87 150.387L450.611 153.51L452.25 151.667L452.966 150.848C453.376 150.387 453.786 149.926 454.144 149.466C464.998 136.41 467.149 118.899 462.746 109.069ZM451.379 144.704C450.97 144.09 450.56 143.475 450.099 142.758C449.229 141.376 448.154 139.84 447.027 138.15C443.904 133.645 439.91 128.064 435.405 122.074C434.125 120.384 432.845 118.694 431.514 117.056C423.373 106.662 415.027 96.832 406.886 88.2816L408.73 82.1376C418.97 95.0912 430.438 107.43 454.093 107.43C456.09 107.43 457.472 109.734 458.086 111.168C461.005 117.773 460.698 132.416 451.379 144.704Z" fill="#00AB9A"/>
<path d="M407.654 76.608L404.019 88.9984C403.354 88.2816 402.637 87.5648 401.971 86.848C401.869 86.7456 401.766 86.6944 401.715 86.592C400.384 85.2608 399.053 83.9296 397.722 82.5984C394.598 79.5264 391.424 76.5056 388.198 73.6896C387.021 72.6144 385.843 71.6416 384.666 70.6176C383.437 69.5936 382.259 68.6208 381.03 67.648C379.853 66.6752 378.624 65.7024 377.395 64.832C376.422 64.0128 375.398 63.296 374.426 62.6304C373.299 61.76 372.173 60.992 370.995 60.224C369.562 59.2512 368.179 58.2784 366.746 57.4592C365.67 56.7424 364.595 56.128 363.52 55.5648C362.65 55.0016 361.779 54.5408 360.909 54.1312C360.038 53.6192 359.168 53.2096 358.298 52.8C357.427 52.3392 356.557 51.9296 355.686 51.5712C354.765 51.1616 353.843 50.752 352.973 50.4448C352.461 50.1888 351.949 50.0352 351.488 49.8816C351.283 49.7792 351.078 49.728 350.925 49.6768C350.464 49.472 350.003 49.3184 349.542 49.216C349.338 49.1136 349.082 49.0112 348.877 49.0112C348.467 48.8576 348.109 48.704 347.699 48.6528C346.778 48.3456 345.907 48.0896 344.986 47.8848C341.402 47.4752 332.493 51.8272 321.894 57.7152V41.3312C321.894 41.3312 343.808 36.416 352.256 36.416C360.704 36.416 386.611 52.0832 400.435 67.7504C402.278 69.7984 404.019 71.9488 405.76 74.1504C406.374 74.9696 406.989 75.7888 407.654 76.608Z" fill="#00AB9A"/>
<path d="M410.061 75.584L409.702 75.0208C408.73 73.792 407.808 72.6144 406.886 71.4368C406.784 71.3344 406.682 71.232 406.63 71.1296L405.76 74.1504C404.019 71.9488 402.278 69.7984 400.435 67.7504C386.611 52.0832 360.704 36.416 352.256 36.416C343.808 36.416 321.894 41.3312 321.894 41.3312V57.7152C321.075 58.176 320.205 58.6368 319.334 59.1488V62.0672L323.174 59.968C335.053 53.3632 342.323 50.1376 344.422 50.3936C360.55 54.2336 379.648 67.4432 401.152 89.664C401.459 90.0224 401.818 90.3808 402.176 90.7392L405.248 93.9648L406.067 91.1488L406.886 88.2816L408.73 82.1376L410.47 76.096L410.061 75.584ZM324.454 43.3792C330.035 42.2016 345.651 38.976 352.256 38.976C359.526 38.976 384.614 53.7728 398.541 69.4912C400.64 71.8464 402.637 74.3552 404.838 77.1712L402.79 84.032C381.44 62.3232 362.189 49.3184 345.293 45.3248C345.037 45.3248 344.781 45.2736 344.525 45.2736C340.992 45.2736 335.104 47.68 324.454 53.4144V43.3792Z" fill="#00AB9A"/>
<path d="M219.29 17.3184L200.704 32.8832C199.68 23.5136 196.506 9.17761 183.501 9.17761C182.272 9.17761 181.043 9.17761 179.866 9.22881C184.934 7.38561 191.59 5.84961 199.782 5.84961C214.886 5.84961 218.47 14.144 219.29 17.3184Z" fill="#00AB9A"/>
<path d="M198.554 38.0544C197.632 24.7424 194.714 11.7376 183.501 11.7376C177.613 11.7376 172.134 12.096 166.963 13.1712C165.018 13.5808 163.123 14.0416 161.28 14.656L157.747 17.6256L167.475 15.68C172.134 14.7072 177.357 14.2976 183.501 14.2976C191.027 14.2976 194.867 21.6704 195.994 38.208L196.352 43.2256L198.758 41.2288C198.758 40.1536 198.605 39.1296 198.554 38.0544Z" fill="#00AB9A"/>
<path d="M358.246 166.771C347.443 166.771 335.923 157.862 335.923 144.602C335.923 131.341 347.904 122.432 359.475 122.432C375.398 122.432 383.744 134.003 383.744 145.472C383.744 156.941 369.408 166.72 358.298 166.72L358.246 166.771ZM359.475 127.603C350.413 127.603 341.043 133.952 341.043 144.653C341.043 155.354 349.952 161.702 358.246 161.702C366.541 161.702 378.573 153.562 378.573 145.574C378.573 136.922 372.582 127.654 359.424 127.654L359.475 127.603Z" fill="#00AB9A"/>
<path d="M339.61 120.333C328.499 120.333 322.099 112.909 322.099 100.006C322.099 87.104 336.998 77.8368 346.829 77.8368C358.451 77.8368 366.285 85.6704 366.285 97.2928C366.285 107.942 359.322 120.333 339.61 120.333ZM346.829 82.9568C340.07 82.9568 327.219 89.5616 327.219 100.006C327.219 110.451 331.264 115.213 339.61 115.213C359.629 115.213 361.165 101.491 361.165 97.2928C361.165 88.4864 355.686 82.9568 346.829 82.9568Z" fill="#00AB9A"/>
<path d="M303.411 185.459C292.301 185.459 285.901 178.035 285.901 165.133C285.901 152.23 300.8 142.963 310.63 142.963C322.253 142.963 330.086 150.797 330.086 162.419C330.086 173.069 323.123 185.459 303.411 185.459ZM310.63 148.083C303.872 148.083 291.021 154.688 291.021 165.133C291.021 175.578 295.066 180.339 303.411 180.339C323.379 180.339 324.966 166.618 324.966 162.419C324.966 153.613 319.488 148.083 310.63 148.083Z" fill="#00AB9A"/>
<path d="M291.994 141.427C284.826 141.427 276.275 138.509 276.275 124.685C276.275 110.861 291.174 102.515 301.005 102.515C306.995 102.515 315.597 107.738 315.597 117.107C315.597 137.178 302.746 141.376 291.942 141.376L291.994 141.427ZM301.056 107.686C294.298 107.686 281.446 114.291 281.446 124.736C281.446 132.877 284.621 136.358 292.045 136.358C304.691 136.358 310.579 130.266 310.579 117.21C310.579 110.912 304.486 107.738 301.107 107.738L301.056 107.686Z" fill="#00AB9A"/>
<path d="M258.816 106.355C258.816 108.147 254.003 119.616 244.941 119.616C235.878 119.616 237.107 114.189 237.107 111.782C237.107 109.376 241.306 98.5216 252.16 98.5216C258.765 98.5216 258.765 104.563 258.765 106.355H258.816Z" fill="#00AB9A"/>
<path d="M244.941 122.176C241.05 122.176 238.285 121.254 236.544 119.411C234.342 117.107 234.445 114.189 234.547 112.448V111.782C234.547 107.994 239.872 95.9616 252.211 95.9616C254.976 95.9616 261.376 96.9856 261.376 106.355C261.376 109.018 255.846 122.176 244.941 122.176ZM252.16 101.082C242.842 101.082 239.667 110.758 239.667 111.782V112.653C239.565 114.086 239.565 115.213 240.23 115.878C240.947 116.646 242.637 117.056 244.941 117.056C251.904 117.056 255.949 107.942 256.256 106.253C256.256 102.464 255.13 101.082 252.211 101.082H252.16Z" fill="#00AB9A"/>
<path d="M203.366 90.688C203.366 92.48 198.554 103.949 189.491 103.949C180.429 103.949 181.658 98.5216 181.658 96.1152C181.658 93.7088 185.856 82.8544 196.71 82.8544C203.315 82.8544 203.315 88.896 203.315 90.688H203.366Z" fill="#00AB9A"/>
<path d="M189.491 106.509C185.6 106.509 182.835 105.587 181.094 103.744C178.893 101.44 178.995 98.5216 179.098 96.7808V96.1152C179.098 92.3264 184.422 80.2944 196.762 80.2944C199.526 80.2944 205.926 81.3184 205.926 90.688C205.926 93.3504 200.397 106.509 189.491 106.509ZM196.71 85.4144C187.392 85.4144 184.218 95.0912 184.218 96.1152V96.9856C184.115 98.4192 184.115 99.5456 184.781 100.211C185.498 100.979 187.187 101.389 189.491 101.389C196.454 101.389 200.499 92.2752 200.806 90.5856C200.806 86.7968 199.68 85.4144 196.762 85.4144H196.71Z" fill="#00AB9A"/>
<path d="M117.094 203.686C108.186 203.686 103.475 198.31 102.144 195.187L101.683 194.112L111.718 173.274L94.0032 167.539L94.7712 165.082C96.3072 160.422 99.7888 151.258 106.189 142.349L107.264 140.813L124.621 146.445L135.424 124.019H136.96C138.394 123.866 151.142 123.507 156.109 127.757L157.594 129.037L145.869 153.306L162.56 158.682L161.843 161.088C158.771 171.533 149.402 183.053 148.992 183.565L147.866 184.947L132.915 180.134L121.805 203.226L120.474 203.43C119.296 203.584 118.118 203.686 117.043 203.686H117.094ZM107.366 194.061C108.493 195.699 111.667 199.027 118.426 198.515L130.304 173.888L146.125 179.008C148.378 176.09 153.498 168.922 156.16 162.061L138.752 156.429L151.142 130.778C148.019 129.498 142.592 129.037 138.701 129.139L127.334 152.742L109.312 146.906C104.909 153.408 102.093 159.91 100.506 164.262L118.886 170.202L107.418 194.061H107.366Z" fill="#00AB9A"/>
<path d="M168.448 147.93C168.448 151.411 167.526 156.582 165.581 162.368C163.328 169.331 159.642 177.216 154.573 184.384C146.227 196.109 134.042 205.786 117.811 205.786C110.234 205.786 105.114 203.43 101.734 199.949C95.4368 193.498 94.9248 183.155 94.9248 176.858C94.9248 174.656 95.6928 170.714 97.2288 165.85L115.302 171.686L104.499 194.112C104.499 194.112 108.083 202.56 120.166 200.819L131.686 176.96L147.098 181.926C147.098 181.926 156.467 170.406 159.488 160.371L142.387 154.842L154.522 129.702C150.17 125.965 137.114 126.528 137.114 126.528L126.003 149.568L108.288 143.834C115.302 134.106 125.235 125.606 138.496 123.61C140.39 123.354 142.336 123.2 144.384 123.2C149.146 123.2 153.139 124.07 156.467 125.658C164.557 129.549 168.499 137.638 168.499 147.93H168.448Z" fill="#00AB9A"/>
<path d="M117.811 208.346C110.234 208.346 104.192 206.093 99.8912 201.741C93.1328 194.829 92.3647 184.23 92.3647 176.909C92.3647 174.195 93.2352 169.894 94.8224 165.133L95.5904 162.675L118.886 170.202L107.418 194.061C108.544 195.699 111.718 199.027 118.477 198.515L130.355 173.888L146.176 179.008C148.378 176.09 153.549 168.922 156.211 162.061L138.803 156.429L151.194 130.778C148.07 129.498 142.643 129.037 138.752 129.139L127.386 152.742L104.192 145.267L106.24 142.4C114.944 130.317 125.952 122.944 138.138 121.152C145.152 120.128 152.218 120.845 157.542 123.405C166.246 127.552 171.008 136.307 171.008 147.981C171.008 151.923 169.933 157.453 168.038 163.238C166.195 168.922 162.714 177.472 156.672 185.92C149.402 196.16 136.704 208.397 117.862 208.397L117.811 208.346ZM133.018 180.134L122.01 203.021C136.448 201.382 146.432 191.398 152.474 182.95C156.877 176.755 160.666 169.178 163.174 161.651C164.915 156.378 165.888 151.411 165.888 147.981C165.888 141.786 164.352 133.85 157.542 129.293L145.92 153.408L162.611 158.784L161.894 161.19C158.822 171.635 149.453 183.155 149.043 183.667L147.917 185.05L132.966 180.237L133.018 180.134ZM98.9183 169.126C97.8431 172.813 97.4847 175.475 97.4847 176.858C97.4847 183.309 98.0991 192.525 103.578 198.157C104.653 199.283 105.933 200.205 107.366 200.973C104.602 199.181 102.912 196.877 102.195 195.187L101.734 194.112L111.77 173.274L98.9696 169.126H98.9183ZM112.486 142.554L124.621 146.496L133.837 127.296C125.85 129.651 118.682 134.771 112.435 142.554H112.486Z" fill="#00AB9A"/>
<path d="M205.773 202.304C201.472 202.304 197.837 201.69 194.714 200.461C186.317 197.133 182.118 189.402 182.118 177.421C182.118 148.749 205.722 141.12 219.648 141.12C220.262 141.12 234.957 141.274 240.589 153.818C241.971 156.89 242.688 160.474 242.688 164.467C242.688 193.037 217.805 202.304 205.773 202.304ZM219.648 146.24C216.32 146.24 187.238 147.11 187.238 177.421C187.238 187.2 190.31 193.19 196.608 195.699C199.117 196.672 202.086 197.184 205.773 197.184C216.166 197.184 237.568 189.197 237.568 164.467C237.568 161.19 237.005 158.323 235.93 155.917C231.629 146.342 219.75 146.24 219.648 146.24Z" fill="#00AB9A"/>
<path d="M235.827 288.474L135.885 253.965C122.624 288.32 85.248 334.707 51.5072 334.707C39.6288 334.707 30.0032 329.024 22.6304 320.678C21.8112 291.034 33.4848 276.646 40.0896 267.84C45.568 260.518 60.4672 241.011 72.5504 232.102C76.3904 229.286 79.9744 227.494 82.8416 227.494C94.8736 227.494 219.034 273.318 228.352 278.541C229.888 279.411 232.448 282.995 235.776 288.525L235.827 288.474Z" fill="#00AB9A"/>
<path d="M51.5072 337.318C39.8336 337.318 29.4912 332.301 20.6848 322.419L20.0704 321.702V320.781C19.2 291.29 30.5152 276.237 37.2736 267.277L37.9904 266.355C51.0464 248.896 62.464 236.352 71.0144 230.054C75.6736 226.624 79.5648 224.934 82.8416 224.934C95.6928 224.934 219.392 270.554 229.632 276.288C231.014 277.056 233.062 278.95 238.029 287.194L241.664 293.235L137.421 257.242C123.341 291.597 86.6304 337.318 51.5584 337.318H51.5072ZM25.1392 319.706C32.768 328 41.6256 332.198 51.5072 332.198C84.6336 332.198 121.037 285.402 133.478 253.094L134.349 250.79L229.632 283.661C227.942 281.357 227.277 280.845 227.123 280.742C218.01 275.622 94.0032 230.054 82.8416 230.054C81.3568 230.054 78.6432 230.771 74.0864 234.15C68.4032 238.349 58.2656 247.872 42.1376 269.376L41.4208 270.298C34.7136 279.206 24.6272 292.57 25.1904 319.654L25.1392 319.706Z" fill="#00AB9A"/>
<path d="M221.389 15.5776C219.904 11.2256 215.091 3.28961 199.782 3.28961C179.046 3.28961 167.424 12.8128 166.963 13.1712C172.134 12.096 177.613 11.7376 183.501 11.7376C194.714 11.7376 197.632 24.7424 198.554 38.0032L221.542 18.752L222.054 18.3424C222.054 18.3424 221.952 17.216 221.389 15.5776ZM200.704 32.8832C199.68 23.5136 196.506 9.17761 183.501 9.17761C182.272 9.17761 181.043 9.17761 179.866 9.22881C184.934 7.38561 191.59 5.84961 199.782 5.84961C214.886 5.84961 218.47 14.144 219.29 17.3184L200.704 32.8832Z" fill="#00AB9A"/>
<path d="M406.63 71.1296L405.76 74.1504C404.019 71.9488 402.278 69.7984 400.435 67.7504C386.611 52.0832 360.704 36.416 352.256 36.416C343.808 36.416 321.894 41.3312 321.894 41.3312V57.7152C321.075 58.176 320.205 58.6368 319.334 59.1488V43.2768L224.666 19.52L198.758 41.2288C198.758 40.1536 198.605 39.1296 198.554 38.0544L221.542 18.752L222.054 18.3424C222.054 18.3424 221.952 17.216 221.389 15.5776C219.904 11.2256 215.091 3.28961 199.782 3.28961C179.046 3.28961 167.424 12.8128 166.963 13.1712C165.018 13.5808 163.123 14.0416 161.28 14.656L165.325 11.2256C165.837 10.7648 177.92 0.729614 199.782 0.729614C215.603 0.729614 221.389 8.76801 223.488 13.9392L321.946 38.72C325.53 37.9008 344.269 33.856 352.256 33.856C361.472 33.856 387.994 49.7792 402.381 66.0608C403.814 67.648 405.197 69.3376 406.63 71.1296Z" fill="#00AB9A"/>
</svg>
